%TF.GenerationSoftware,KiCad,Pcbnew,8.0.8-8.0.8-0~ubuntu24.04.1*%
%TF.CreationDate,2025-02-06T15:48:19-08:00*%
%TF.ProjectId,mem_ext_board,6d656d5f-6578-4745-9f62-6f6172642e6b,rev?*%
%TF.SameCoordinates,Original*%
%TF.FileFunction,Legend,Top*%
%TF.FilePolarity,Positive*%
%FSLAX46Y46*%
G04 Gerber Fmt 4.6, Leading zero omitted, Abs format (unit mm)*
G04 Created by KiCad (PCBNEW 8.0.8-8.0.8-0~ubuntu24.04.1) date 2025-02-06 15:48:19*
%MOMM*%
%LPD*%
G01*
G04 APERTURE LIST*
%ADD10C,0.100000*%
%ADD11C,0.150000*%
%ADD12C,0.120000*%
G04 APERTURE END LIST*
D10*
X149157547Y-113638000D02*
X149157547Y-113138000D01*
X147157547Y-113638000D02*
X147157547Y-113138000D01*
X138641547Y-113738000D02*
X138641547Y-111838000D01*
X137941547Y-112038000D02*
X137941547Y-112538000D01*
X137941547Y-112538000D02*
X138441547Y-112538000D01*
X147657547Y-112138000D02*
X147657547Y-112638000D01*
X150157547Y-113138000D02*
X149657547Y-113138000D01*
X138941547Y-113538000D02*
X139441547Y-113538000D01*
X139441547Y-112038000D02*
X138941547Y-112038000D01*
X139441547Y-112538000D02*
X139441547Y-112038000D01*
X135741547Y-113738000D02*
X136641547Y-113738000D01*
X137741547Y-111838000D02*
X137741547Y-113738000D01*
X135941547Y-112538000D02*
X136441547Y-112538000D01*
X147157547Y-113138000D02*
X146657547Y-113138000D01*
X138441547Y-113538000D02*
X138441547Y-113038000D01*
X137441547Y-112038000D02*
X136941547Y-112038000D01*
X137941547Y-113538000D02*
X138441547Y-113538000D01*
X138441547Y-112038000D02*
X137941547Y-112038000D01*
X136741547Y-113738000D02*
X137641547Y-113738000D01*
X135941547Y-112038000D02*
X135941547Y-112538000D01*
X139641547Y-111838000D02*
X138741547Y-111838000D01*
X149157547Y-112638000D02*
X149157547Y-112138000D01*
X150157547Y-113638000D02*
X150157547Y-113138000D01*
X147157547Y-112138000D02*
X146657547Y-112138000D01*
X146657547Y-112638000D02*
X147157547Y-112638000D01*
X147657547Y-112638000D02*
X148157547Y-112638000D01*
X138941547Y-112538000D02*
X139441547Y-112538000D01*
X138741547Y-113738000D02*
X139641547Y-113738000D01*
X138741547Y-111838000D02*
X138741547Y-113738000D01*
X147157547Y-112638000D02*
X147157547Y-112138000D01*
X135941547Y-113538000D02*
X136441547Y-113538000D01*
X139441547Y-113038000D02*
X138941547Y-113038000D01*
X149657547Y-112638000D02*
X150157547Y-112638000D01*
X136441547Y-112538000D02*
X136441547Y-112038000D01*
X137441547Y-113538000D02*
X137441547Y-113038000D01*
X136641547Y-111838000D02*
X135741547Y-111838000D01*
X137941547Y-113038000D02*
X137941547Y-113538000D01*
X148157547Y-113138000D02*
X147657547Y-113138000D01*
X149657547Y-113138000D02*
X149657547Y-113638000D01*
X135941547Y-113038000D02*
X135941547Y-113538000D01*
X137441547Y-112538000D02*
X137441547Y-112038000D01*
X147657547Y-113638000D02*
X148157547Y-113638000D01*
X149157547Y-112138000D02*
X148657547Y-112138000D01*
X136741547Y-111838000D02*
X136741547Y-113738000D01*
X136941547Y-113038000D02*
X136941547Y-113538000D01*
X138441547Y-112538000D02*
X138441547Y-112038000D01*
X149657547Y-112138000D02*
X149657547Y-112638000D01*
X147657547Y-113138000D02*
X147657547Y-113638000D01*
X138941547Y-113038000D02*
X138941547Y-113538000D01*
X138941547Y-112038000D02*
X138941547Y-112538000D01*
X137741547Y-113738000D02*
X138641547Y-113738000D01*
X148157547Y-112138000D02*
X147657547Y-112138000D01*
X136641547Y-113738000D02*
X136641547Y-111838000D01*
X148157547Y-112638000D02*
X148157547Y-112138000D01*
X139641547Y-113738000D02*
X139641547Y-111838000D01*
X148657547Y-112138000D02*
X148657547Y-112638000D01*
X150157547Y-112138000D02*
X149657547Y-112138000D01*
X137641547Y-111838000D02*
X136741547Y-111838000D01*
X136441547Y-112038000D02*
X135941547Y-112038000D01*
X139441547Y-113538000D02*
X139441547Y-113038000D01*
X136941547Y-112038000D02*
X136941547Y-112538000D01*
X149657547Y-113638000D02*
X150157547Y-113638000D01*
X135741547Y-111838000D02*
X135741547Y-113738000D01*
X136941547Y-112538000D02*
X137441547Y-112538000D01*
X148657547Y-113638000D02*
X149157547Y-113638000D01*
X138441547Y-113038000D02*
X137941547Y-113038000D01*
X137441547Y-113038000D02*
X136941547Y-113038000D01*
X146657547Y-113638000D02*
X147157547Y-113638000D01*
X149157547Y-113138000D02*
X148657547Y-113138000D01*
X146657547Y-113138000D02*
X146657547Y-113638000D01*
X138641547Y-111838000D02*
X137741547Y-111838000D01*
X148657547Y-113138000D02*
X148657547Y-113638000D01*
X150157547Y-112638000D02*
X150157547Y-112138000D01*
X148657547Y-112638000D02*
X149157547Y-112638000D01*
X136441547Y-113038000D02*
X135941547Y-113038000D01*
X136941547Y-113538000D02*
X137441547Y-113538000D01*
X137641547Y-113738000D02*
X137641547Y-111838000D01*
X146657547Y-112138000D02*
X146657547Y-112638000D01*
X148157547Y-113638000D02*
X148157547Y-113138000D01*
X136441547Y-113538000D02*
X136441547Y-113038000D01*
X170568119Y-83039998D02*
X170615738Y-82992379D01*
X170615738Y-82992379D02*
X170758595Y-82897141D01*
X170758595Y-82897141D02*
X170853833Y-82849522D01*
X170853833Y-82849522D02*
X170996691Y-82801903D01*
X170996691Y-82801903D02*
X171234786Y-82754284D01*
X171234786Y-82754284D02*
X171425262Y-82754284D01*
X171425262Y-82754284D02*
X171663357Y-82801903D01*
X171663357Y-82801903D02*
X171806214Y-82849522D01*
X171806214Y-82849522D02*
X171901452Y-82897141D01*
X171901452Y-82897141D02*
X172044310Y-82992379D01*
X172044310Y-82992379D02*
X172091929Y-83039998D01*
X171044310Y-83992379D02*
X170996691Y-83944760D01*
X170996691Y-83944760D02*
X170949071Y-83801903D01*
X170949071Y-83801903D02*
X170949071Y-83706665D01*
X170949071Y-83706665D02*
X170996691Y-83563808D01*
X170996691Y-83563808D02*
X171091929Y-83468570D01*
X171091929Y-83468570D02*
X171187167Y-83420951D01*
X171187167Y-83420951D02*
X171377643Y-83373332D01*
X171377643Y-83373332D02*
X171520500Y-83373332D01*
X171520500Y-83373332D02*
X171710976Y-83420951D01*
X171710976Y-83420951D02*
X171806214Y-83468570D01*
X171806214Y-83468570D02*
X171901452Y-83563808D01*
X171901452Y-83563808D02*
X171949071Y-83706665D01*
X171949071Y-83706665D02*
X171949071Y-83801903D01*
X171949071Y-83801903D02*
X171901452Y-83944760D01*
X171901452Y-83944760D02*
X171853833Y-83992379D01*
X170568119Y-84325713D02*
X170615738Y-84373332D01*
X170615738Y-84373332D02*
X170758595Y-84468570D01*
X170758595Y-84468570D02*
X170853833Y-84516189D01*
X170853833Y-84516189D02*
X170996691Y-84563808D01*
X170996691Y-84563808D02*
X171234786Y-84611427D01*
X171234786Y-84611427D02*
X171425262Y-84611427D01*
X171425262Y-84611427D02*
X171663357Y-84563808D01*
X171663357Y-84563808D02*
X171806214Y-84516189D01*
X171806214Y-84516189D02*
X171901452Y-84468570D01*
X171901452Y-84468570D02*
X172044310Y-84373332D01*
X172044310Y-84373332D02*
X172091929Y-84325713D01*
X171853833Y-85801904D02*
X171901452Y-85849523D01*
X171901452Y-85849523D02*
X171949071Y-85944761D01*
X171949071Y-85944761D02*
X171949071Y-86182856D01*
X171949071Y-86182856D02*
X171901452Y-86278094D01*
X171901452Y-86278094D02*
X171853833Y-86325713D01*
X171853833Y-86325713D02*
X171758595Y-86373332D01*
X171758595Y-86373332D02*
X171663357Y-86373332D01*
X171663357Y-86373332D02*
X171520500Y-86325713D01*
X171520500Y-86325713D02*
X170949071Y-85754285D01*
X170949071Y-85754285D02*
X170949071Y-86373332D01*
X171949071Y-86992380D02*
X171949071Y-87087618D01*
X171949071Y-87087618D02*
X171901452Y-87182856D01*
X171901452Y-87182856D02*
X171853833Y-87230475D01*
X171853833Y-87230475D02*
X171758595Y-87278094D01*
X171758595Y-87278094D02*
X171568119Y-87325713D01*
X171568119Y-87325713D02*
X171330024Y-87325713D01*
X171330024Y-87325713D02*
X171139548Y-87278094D01*
X171139548Y-87278094D02*
X171044310Y-87230475D01*
X171044310Y-87230475D02*
X170996691Y-87182856D01*
X170996691Y-87182856D02*
X170949071Y-87087618D01*
X170949071Y-87087618D02*
X170949071Y-86992380D01*
X170949071Y-86992380D02*
X170996691Y-86897142D01*
X170996691Y-86897142D02*
X171044310Y-86849523D01*
X171044310Y-86849523D02*
X171139548Y-86801904D01*
X171139548Y-86801904D02*
X171330024Y-86754285D01*
X171330024Y-86754285D02*
X171568119Y-86754285D01*
X171568119Y-86754285D02*
X171758595Y-86801904D01*
X171758595Y-86801904D02*
X171853833Y-86849523D01*
X171853833Y-86849523D02*
X171901452Y-86897142D01*
X171901452Y-86897142D02*
X171949071Y-86992380D01*
X171853833Y-87706666D02*
X171901452Y-87754285D01*
X171901452Y-87754285D02*
X171949071Y-87849523D01*
X171949071Y-87849523D02*
X171949071Y-88087618D01*
X171949071Y-88087618D02*
X171901452Y-88182856D01*
X171901452Y-88182856D02*
X171853833Y-88230475D01*
X171853833Y-88230475D02*
X171758595Y-88278094D01*
X171758595Y-88278094D02*
X171663357Y-88278094D01*
X171663357Y-88278094D02*
X171520500Y-88230475D01*
X171520500Y-88230475D02*
X170949071Y-87659047D01*
X170949071Y-87659047D02*
X170949071Y-88278094D01*
X171949071Y-89182856D02*
X171949071Y-88706666D01*
X171949071Y-88706666D02*
X171472881Y-88659047D01*
X171472881Y-88659047D02*
X171520500Y-88706666D01*
X171520500Y-88706666D02*
X171568119Y-88801904D01*
X171568119Y-88801904D02*
X171568119Y-89039999D01*
X171568119Y-89039999D02*
X171520500Y-89135237D01*
X171520500Y-89135237D02*
X171472881Y-89182856D01*
X171472881Y-89182856D02*
X171377643Y-89230475D01*
X171377643Y-89230475D02*
X171139548Y-89230475D01*
X171139548Y-89230475D02*
X171044310Y-89182856D01*
X171044310Y-89182856D02*
X170996691Y-89135237D01*
X170996691Y-89135237D02*
X170949071Y-89039999D01*
X170949071Y-89039999D02*
X170949071Y-88801904D01*
X170949071Y-88801904D02*
X170996691Y-88706666D01*
X170996691Y-88706666D02*
X171044310Y-88659047D01*
X170949071Y-90420952D02*
X171949071Y-90420952D01*
X171949071Y-90420952D02*
X171234786Y-90754285D01*
X171234786Y-90754285D02*
X171949071Y-91087618D01*
X171949071Y-91087618D02*
X170949071Y-91087618D01*
X170949071Y-91706666D02*
X170996691Y-91611428D01*
X170996691Y-91611428D02*
X171044310Y-91563809D01*
X171044310Y-91563809D02*
X171139548Y-91516190D01*
X171139548Y-91516190D02*
X171425262Y-91516190D01*
X171425262Y-91516190D02*
X171520500Y-91563809D01*
X171520500Y-91563809D02*
X171568119Y-91611428D01*
X171568119Y-91611428D02*
X171615738Y-91706666D01*
X171615738Y-91706666D02*
X171615738Y-91849523D01*
X171615738Y-91849523D02*
X171568119Y-91944761D01*
X171568119Y-91944761D02*
X171520500Y-91992380D01*
X171520500Y-91992380D02*
X171425262Y-92039999D01*
X171425262Y-92039999D02*
X171139548Y-92039999D01*
X171139548Y-92039999D02*
X171044310Y-91992380D01*
X171044310Y-91992380D02*
X170996691Y-91944761D01*
X170996691Y-91944761D02*
X170949071Y-91849523D01*
X170949071Y-91849523D02*
X170949071Y-91706666D01*
X170949071Y-92897142D02*
X171949071Y-92897142D01*
X170996691Y-92897142D02*
X170949071Y-92801904D01*
X170949071Y-92801904D02*
X170949071Y-92611428D01*
X170949071Y-92611428D02*
X170996691Y-92516190D01*
X170996691Y-92516190D02*
X171044310Y-92468571D01*
X171044310Y-92468571D02*
X171139548Y-92420952D01*
X171139548Y-92420952D02*
X171425262Y-92420952D01*
X171425262Y-92420952D02*
X171520500Y-92468571D01*
X171520500Y-92468571D02*
X171568119Y-92516190D01*
X171568119Y-92516190D02*
X171615738Y-92611428D01*
X171615738Y-92611428D02*
X171615738Y-92801904D01*
X171615738Y-92801904D02*
X171568119Y-92897142D01*
X171615738Y-93801904D02*
X170949071Y-93801904D01*
X171615738Y-93373333D02*
X171091929Y-93373333D01*
X171091929Y-93373333D02*
X170996691Y-93420952D01*
X170996691Y-93420952D02*
X170949071Y-93516190D01*
X170949071Y-93516190D02*
X170949071Y-93659047D01*
X170949071Y-93659047D02*
X170996691Y-93754285D01*
X170996691Y-93754285D02*
X171044310Y-93801904D01*
X170949071Y-94420952D02*
X170996691Y-94325714D01*
X170996691Y-94325714D02*
X171091929Y-94278095D01*
X171091929Y-94278095D02*
X171949071Y-94278095D01*
X170949071Y-95230476D02*
X171472881Y-95230476D01*
X171472881Y-95230476D02*
X171568119Y-95182857D01*
X171568119Y-95182857D02*
X171615738Y-95087619D01*
X171615738Y-95087619D02*
X171615738Y-94897143D01*
X171615738Y-94897143D02*
X171568119Y-94801905D01*
X170996691Y-95230476D02*
X170949071Y-95135238D01*
X170949071Y-95135238D02*
X170949071Y-94897143D01*
X170949071Y-94897143D02*
X170996691Y-94801905D01*
X170996691Y-94801905D02*
X171091929Y-94754286D01*
X171091929Y-94754286D02*
X171187167Y-94754286D01*
X171187167Y-94754286D02*
X171282405Y-94801905D01*
X171282405Y-94801905D02*
X171330024Y-94897143D01*
X171330024Y-94897143D02*
X171330024Y-95135238D01*
X171330024Y-95135238D02*
X171377643Y-95230476D01*
X170949071Y-95706667D02*
X171615738Y-95706667D01*
X171425262Y-95706667D02*
X171520500Y-95754286D01*
X171520500Y-95754286D02*
X171568119Y-95801905D01*
X171568119Y-95801905D02*
X171615738Y-95897143D01*
X171615738Y-95897143D02*
X171615738Y-95992381D01*
X171044310Y-97659048D02*
X170996691Y-97611429D01*
X170996691Y-97611429D02*
X170949071Y-97468572D01*
X170949071Y-97468572D02*
X170949071Y-97373334D01*
X170949071Y-97373334D02*
X170996691Y-97230477D01*
X170996691Y-97230477D02*
X171091929Y-97135239D01*
X171091929Y-97135239D02*
X171187167Y-97087620D01*
X171187167Y-97087620D02*
X171377643Y-97040001D01*
X171377643Y-97040001D02*
X171520500Y-97040001D01*
X171520500Y-97040001D02*
X171710976Y-97087620D01*
X171710976Y-97087620D02*
X171806214Y-97135239D01*
X171806214Y-97135239D02*
X171901452Y-97230477D01*
X171901452Y-97230477D02*
X171949071Y-97373334D01*
X171949071Y-97373334D02*
X171949071Y-97468572D01*
X171949071Y-97468572D02*
X171901452Y-97611429D01*
X171901452Y-97611429D02*
X171853833Y-97659048D01*
X170949071Y-98087620D02*
X171615738Y-98087620D01*
X171949071Y-98087620D02*
X171901452Y-98040001D01*
X171901452Y-98040001D02*
X171853833Y-98087620D01*
X171853833Y-98087620D02*
X171901452Y-98135239D01*
X171901452Y-98135239D02*
X171949071Y-98087620D01*
X171949071Y-98087620D02*
X171853833Y-98087620D01*
X170949071Y-98563810D02*
X171615738Y-98563810D01*
X171425262Y-98563810D02*
X171520500Y-98611429D01*
X171520500Y-98611429D02*
X171568119Y-98659048D01*
X171568119Y-98659048D02*
X171615738Y-98754286D01*
X171615738Y-98754286D02*
X171615738Y-98849524D01*
X170996691Y-99611429D02*
X170949071Y-99516191D01*
X170949071Y-99516191D02*
X170949071Y-99325715D01*
X170949071Y-99325715D02*
X170996691Y-99230477D01*
X170996691Y-99230477D02*
X171044310Y-99182858D01*
X171044310Y-99182858D02*
X171139548Y-99135239D01*
X171139548Y-99135239D02*
X171425262Y-99135239D01*
X171425262Y-99135239D02*
X171520500Y-99182858D01*
X171520500Y-99182858D02*
X171568119Y-99230477D01*
X171568119Y-99230477D02*
X171615738Y-99325715D01*
X171615738Y-99325715D02*
X171615738Y-99516191D01*
X171615738Y-99516191D02*
X171568119Y-99611429D01*
X171615738Y-100468572D02*
X170949071Y-100468572D01*
X171615738Y-100040001D02*
X171091929Y-100040001D01*
X171091929Y-100040001D02*
X170996691Y-100087620D01*
X170996691Y-100087620D02*
X170949071Y-100182858D01*
X170949071Y-100182858D02*
X170949071Y-100325715D01*
X170949071Y-100325715D02*
X170996691Y-100420953D01*
X170996691Y-100420953D02*
X171044310Y-100468572D01*
X170949071Y-100944763D02*
X171615738Y-100944763D01*
X171949071Y-100944763D02*
X171901452Y-100897144D01*
X171901452Y-100897144D02*
X171853833Y-100944763D01*
X171853833Y-100944763D02*
X171901452Y-100992382D01*
X171901452Y-100992382D02*
X171949071Y-100944763D01*
X171949071Y-100944763D02*
X171853833Y-100944763D01*
X171615738Y-101278096D02*
X171615738Y-101659048D01*
X171949071Y-101420953D02*
X171091929Y-101420953D01*
X171091929Y-101420953D02*
X170996691Y-101468572D01*
X170996691Y-101468572D02*
X170949071Y-101563810D01*
X170949071Y-101563810D02*
X170949071Y-101659048D01*
X170996691Y-101944763D02*
X170949071Y-102040001D01*
X170949071Y-102040001D02*
X170949071Y-102230477D01*
X170949071Y-102230477D02*
X170996691Y-102325715D01*
X170996691Y-102325715D02*
X171091929Y-102373334D01*
X171091929Y-102373334D02*
X171139548Y-102373334D01*
X171139548Y-102373334D02*
X171234786Y-102325715D01*
X171234786Y-102325715D02*
X171282405Y-102230477D01*
X171282405Y-102230477D02*
X171282405Y-102087620D01*
X171282405Y-102087620D02*
X171330024Y-101992382D01*
X171330024Y-101992382D02*
X171425262Y-101944763D01*
X171425262Y-101944763D02*
X171472881Y-101944763D01*
X171472881Y-101944763D02*
X171568119Y-101992382D01*
X171568119Y-101992382D02*
X171615738Y-102087620D01*
X171615738Y-102087620D02*
X171615738Y-102230477D01*
X171615738Y-102230477D02*
X171568119Y-102325715D01*
X170005794Y-83254286D02*
X169339127Y-83444762D01*
X169339127Y-83444762D02*
X169815318Y-83635238D01*
X169815318Y-83635238D02*
X169339127Y-83825714D01*
X169339127Y-83825714D02*
X170005794Y-84016190D01*
X170005794Y-84301905D02*
X169339127Y-84492381D01*
X169339127Y-84492381D02*
X169815318Y-84682857D01*
X169815318Y-84682857D02*
X169339127Y-84873333D01*
X169339127Y-84873333D02*
X170005794Y-85063809D01*
X170005794Y-85349524D02*
X169339127Y-85540000D01*
X169339127Y-85540000D02*
X169815318Y-85730476D01*
X169815318Y-85730476D02*
X169339127Y-85920952D01*
X169339127Y-85920952D02*
X170005794Y-86111428D01*
X169434366Y-86492381D02*
X169386747Y-86540000D01*
X169386747Y-86540000D02*
X169339127Y-86492381D01*
X169339127Y-86492381D02*
X169386747Y-86444762D01*
X169386747Y-86444762D02*
X169434366Y-86492381D01*
X169434366Y-86492381D02*
X169339127Y-86492381D01*
X169339127Y-86968571D02*
X170005794Y-86968571D01*
X169910556Y-86968571D02*
X169958175Y-87016190D01*
X169958175Y-87016190D02*
X170005794Y-87111428D01*
X170005794Y-87111428D02*
X170005794Y-87254285D01*
X170005794Y-87254285D02*
X169958175Y-87349523D01*
X169958175Y-87349523D02*
X169862937Y-87397142D01*
X169862937Y-87397142D02*
X169339127Y-87397142D01*
X169862937Y-87397142D02*
X169958175Y-87444761D01*
X169958175Y-87444761D02*
X170005794Y-87539999D01*
X170005794Y-87539999D02*
X170005794Y-87682856D01*
X170005794Y-87682856D02*
X169958175Y-87778095D01*
X169958175Y-87778095D02*
X169862937Y-87825714D01*
X169862937Y-87825714D02*
X169339127Y-87825714D01*
X169339127Y-88444761D02*
X169386747Y-88349523D01*
X169386747Y-88349523D02*
X169434366Y-88301904D01*
X169434366Y-88301904D02*
X169529604Y-88254285D01*
X169529604Y-88254285D02*
X169815318Y-88254285D01*
X169815318Y-88254285D02*
X169910556Y-88301904D01*
X169910556Y-88301904D02*
X169958175Y-88349523D01*
X169958175Y-88349523D02*
X170005794Y-88444761D01*
X170005794Y-88444761D02*
X170005794Y-88587618D01*
X170005794Y-88587618D02*
X169958175Y-88682856D01*
X169958175Y-88682856D02*
X169910556Y-88730475D01*
X169910556Y-88730475D02*
X169815318Y-88778094D01*
X169815318Y-88778094D02*
X169529604Y-88778094D01*
X169529604Y-88778094D02*
X169434366Y-88730475D01*
X169434366Y-88730475D02*
X169386747Y-88682856D01*
X169386747Y-88682856D02*
X169339127Y-88587618D01*
X169339127Y-88587618D02*
X169339127Y-88444761D01*
X169339127Y-89635237D02*
X170339127Y-89635237D01*
X169386747Y-89635237D02*
X169339127Y-89539999D01*
X169339127Y-89539999D02*
X169339127Y-89349523D01*
X169339127Y-89349523D02*
X169386747Y-89254285D01*
X169386747Y-89254285D02*
X169434366Y-89206666D01*
X169434366Y-89206666D02*
X169529604Y-89159047D01*
X169529604Y-89159047D02*
X169815318Y-89159047D01*
X169815318Y-89159047D02*
X169910556Y-89206666D01*
X169910556Y-89206666D02*
X169958175Y-89254285D01*
X169958175Y-89254285D02*
X170005794Y-89349523D01*
X170005794Y-89349523D02*
X170005794Y-89539999D01*
X170005794Y-89539999D02*
X169958175Y-89635237D01*
X170005794Y-90539999D02*
X169339127Y-90539999D01*
X170005794Y-90111428D02*
X169481985Y-90111428D01*
X169481985Y-90111428D02*
X169386747Y-90159047D01*
X169386747Y-90159047D02*
X169339127Y-90254285D01*
X169339127Y-90254285D02*
X169339127Y-90397142D01*
X169339127Y-90397142D02*
X169386747Y-90492380D01*
X169386747Y-90492380D02*
X169434366Y-90539999D01*
X169339127Y-91159047D02*
X169386747Y-91063809D01*
X169386747Y-91063809D02*
X169481985Y-91016190D01*
X169481985Y-91016190D02*
X170339127Y-91016190D01*
X169339127Y-91968571D02*
X169862937Y-91968571D01*
X169862937Y-91968571D02*
X169958175Y-91920952D01*
X169958175Y-91920952D02*
X170005794Y-91825714D01*
X170005794Y-91825714D02*
X170005794Y-91635238D01*
X170005794Y-91635238D02*
X169958175Y-91540000D01*
X169386747Y-91968571D02*
X169339127Y-91873333D01*
X169339127Y-91873333D02*
X169339127Y-91635238D01*
X169339127Y-91635238D02*
X169386747Y-91540000D01*
X169386747Y-91540000D02*
X169481985Y-91492381D01*
X169481985Y-91492381D02*
X169577223Y-91492381D01*
X169577223Y-91492381D02*
X169672461Y-91540000D01*
X169672461Y-91540000D02*
X169720080Y-91635238D01*
X169720080Y-91635238D02*
X169720080Y-91873333D01*
X169720080Y-91873333D02*
X169767699Y-91968571D01*
X169339127Y-92444762D02*
X170005794Y-92444762D01*
X169815318Y-92444762D02*
X169910556Y-92492381D01*
X169910556Y-92492381D02*
X169958175Y-92540000D01*
X169958175Y-92540000D02*
X170005794Y-92635238D01*
X170005794Y-92635238D02*
X170005794Y-92730476D01*
X169386747Y-93492381D02*
X169339127Y-93397143D01*
X169339127Y-93397143D02*
X169339127Y-93206667D01*
X169339127Y-93206667D02*
X169386747Y-93111429D01*
X169386747Y-93111429D02*
X169434366Y-93063810D01*
X169434366Y-93063810D02*
X169529604Y-93016191D01*
X169529604Y-93016191D02*
X169815318Y-93016191D01*
X169815318Y-93016191D02*
X169910556Y-93063810D01*
X169910556Y-93063810D02*
X169958175Y-93111429D01*
X169958175Y-93111429D02*
X170005794Y-93206667D01*
X170005794Y-93206667D02*
X170005794Y-93397143D01*
X170005794Y-93397143D02*
X169958175Y-93492381D01*
X169339127Y-93920953D02*
X170005794Y-93920953D01*
X170339127Y-93920953D02*
X170291508Y-93873334D01*
X170291508Y-93873334D02*
X170243889Y-93920953D01*
X170243889Y-93920953D02*
X170291508Y-93968572D01*
X170291508Y-93968572D02*
X170339127Y-93920953D01*
X170339127Y-93920953D02*
X170243889Y-93920953D01*
X169339127Y-94397143D02*
X170005794Y-94397143D01*
X169815318Y-94397143D02*
X169910556Y-94444762D01*
X169910556Y-94444762D02*
X169958175Y-94492381D01*
X169958175Y-94492381D02*
X170005794Y-94587619D01*
X170005794Y-94587619D02*
X170005794Y-94682857D01*
X169386747Y-95444762D02*
X169339127Y-95349524D01*
X169339127Y-95349524D02*
X169339127Y-95159048D01*
X169339127Y-95159048D02*
X169386747Y-95063810D01*
X169386747Y-95063810D02*
X169434366Y-95016191D01*
X169434366Y-95016191D02*
X169529604Y-94968572D01*
X169529604Y-94968572D02*
X169815318Y-94968572D01*
X169815318Y-94968572D02*
X169910556Y-95016191D01*
X169910556Y-95016191D02*
X169958175Y-95063810D01*
X169958175Y-95063810D02*
X170005794Y-95159048D01*
X170005794Y-95159048D02*
X170005794Y-95349524D01*
X170005794Y-95349524D02*
X169958175Y-95444762D01*
X170005794Y-96301905D02*
X169339127Y-96301905D01*
X170005794Y-95873334D02*
X169481985Y-95873334D01*
X169481985Y-95873334D02*
X169386747Y-95920953D01*
X169386747Y-95920953D02*
X169339127Y-96016191D01*
X169339127Y-96016191D02*
X169339127Y-96159048D01*
X169339127Y-96159048D02*
X169386747Y-96254286D01*
X169386747Y-96254286D02*
X169434366Y-96301905D01*
X169339127Y-96778096D02*
X170005794Y-96778096D01*
X170339127Y-96778096D02*
X170291508Y-96730477D01*
X170291508Y-96730477D02*
X170243889Y-96778096D01*
X170243889Y-96778096D02*
X170291508Y-96825715D01*
X170291508Y-96825715D02*
X170339127Y-96778096D01*
X170339127Y-96778096D02*
X170243889Y-96778096D01*
X170005794Y-97111429D02*
X170005794Y-97492381D01*
X170339127Y-97254286D02*
X169481985Y-97254286D01*
X169481985Y-97254286D02*
X169386747Y-97301905D01*
X169386747Y-97301905D02*
X169339127Y-97397143D01*
X169339127Y-97397143D02*
X169339127Y-97492381D01*
X169386747Y-97778096D02*
X169339127Y-97873334D01*
X169339127Y-97873334D02*
X169339127Y-98063810D01*
X169339127Y-98063810D02*
X169386747Y-98159048D01*
X169386747Y-98159048D02*
X169481985Y-98206667D01*
X169481985Y-98206667D02*
X169529604Y-98206667D01*
X169529604Y-98206667D02*
X169624842Y-98159048D01*
X169624842Y-98159048D02*
X169672461Y-98063810D01*
X169672461Y-98063810D02*
X169672461Y-97920953D01*
X169672461Y-97920953D02*
X169720080Y-97825715D01*
X169720080Y-97825715D02*
X169815318Y-97778096D01*
X169815318Y-97778096D02*
X169862937Y-97778096D01*
X169862937Y-97778096D02*
X169958175Y-97825715D01*
X169958175Y-97825715D02*
X170005794Y-97920953D01*
X170005794Y-97920953D02*
X170005794Y-98063810D01*
X170005794Y-98063810D02*
X169958175Y-98159048D01*
X169434366Y-98635239D02*
X169386747Y-98682858D01*
X169386747Y-98682858D02*
X169339127Y-98635239D01*
X169339127Y-98635239D02*
X169386747Y-98587620D01*
X169386747Y-98587620D02*
X169434366Y-98635239D01*
X169434366Y-98635239D02*
X169339127Y-98635239D01*
X169386747Y-99540000D02*
X169339127Y-99444762D01*
X169339127Y-99444762D02*
X169339127Y-99254286D01*
X169339127Y-99254286D02*
X169386747Y-99159048D01*
X169386747Y-99159048D02*
X169434366Y-99111429D01*
X169434366Y-99111429D02*
X169529604Y-99063810D01*
X169529604Y-99063810D02*
X169815318Y-99063810D01*
X169815318Y-99063810D02*
X169910556Y-99111429D01*
X169910556Y-99111429D02*
X169958175Y-99159048D01*
X169958175Y-99159048D02*
X170005794Y-99254286D01*
X170005794Y-99254286D02*
X170005794Y-99444762D01*
X170005794Y-99444762D02*
X169958175Y-99540000D01*
X169339127Y-100111429D02*
X169386747Y-100016191D01*
X169386747Y-100016191D02*
X169434366Y-99968572D01*
X169434366Y-99968572D02*
X169529604Y-99920953D01*
X169529604Y-99920953D02*
X169815318Y-99920953D01*
X169815318Y-99920953D02*
X169910556Y-99968572D01*
X169910556Y-99968572D02*
X169958175Y-100016191D01*
X169958175Y-100016191D02*
X170005794Y-100111429D01*
X170005794Y-100111429D02*
X170005794Y-100254286D01*
X170005794Y-100254286D02*
X169958175Y-100349524D01*
X169958175Y-100349524D02*
X169910556Y-100397143D01*
X169910556Y-100397143D02*
X169815318Y-100444762D01*
X169815318Y-100444762D02*
X169529604Y-100444762D01*
X169529604Y-100444762D02*
X169434366Y-100397143D01*
X169434366Y-100397143D02*
X169386747Y-100349524D01*
X169386747Y-100349524D02*
X169339127Y-100254286D01*
X169339127Y-100254286D02*
X169339127Y-100111429D01*
X169339127Y-100873334D02*
X170005794Y-100873334D01*
X169910556Y-100873334D02*
X169958175Y-100920953D01*
X169958175Y-100920953D02*
X170005794Y-101016191D01*
X170005794Y-101016191D02*
X170005794Y-101159048D01*
X170005794Y-101159048D02*
X169958175Y-101254286D01*
X169958175Y-101254286D02*
X169862937Y-101301905D01*
X169862937Y-101301905D02*
X169339127Y-101301905D01*
X169862937Y-101301905D02*
X169958175Y-101349524D01*
X169958175Y-101349524D02*
X170005794Y-101444762D01*
X170005794Y-101444762D02*
X170005794Y-101587619D01*
X170005794Y-101587619D02*
X169958175Y-101682858D01*
X169958175Y-101682858D02*
X169862937Y-101730477D01*
X169862937Y-101730477D02*
X169339127Y-101730477D01*
X151437621Y-112410419D02*
X150961431Y-112410419D01*
X150961431Y-112410419D02*
X150913812Y-112886609D01*
X150913812Y-112886609D02*
X150961431Y-112838990D01*
X150961431Y-112838990D02*
X151056669Y-112791371D01*
X151056669Y-112791371D02*
X151294764Y-112791371D01*
X151294764Y-112791371D02*
X151390002Y-112838990D01*
X151390002Y-112838990D02*
X151437621Y-112886609D01*
X151437621Y-112886609D02*
X151485240Y-112981847D01*
X151485240Y-112981847D02*
X151485240Y-113219942D01*
X151485240Y-113219942D02*
X151437621Y-113315180D01*
X151437621Y-113315180D02*
X151390002Y-113362800D01*
X151390002Y-113362800D02*
X151294764Y-113410419D01*
X151294764Y-113410419D02*
X151056669Y-113410419D01*
X151056669Y-113410419D02*
X150961431Y-113362800D01*
X150961431Y-113362800D02*
X150913812Y-113315180D01*
X152437621Y-113410419D02*
X151866193Y-113410419D01*
X152151907Y-113410419D02*
X152151907Y-112410419D01*
X152151907Y-112410419D02*
X152056669Y-112553276D01*
X152056669Y-112553276D02*
X151961431Y-112648514D01*
X151961431Y-112648514D02*
X151866193Y-112696133D01*
X152818574Y-112505657D02*
X152866193Y-112458038D01*
X152866193Y-112458038D02*
X152961431Y-112410419D01*
X152961431Y-112410419D02*
X153199526Y-112410419D01*
X153199526Y-112410419D02*
X153294764Y-112458038D01*
X153294764Y-112458038D02*
X153342383Y-112505657D01*
X153342383Y-112505657D02*
X153390002Y-112600895D01*
X153390002Y-112600895D02*
X153390002Y-112696133D01*
X153390002Y-112696133D02*
X153342383Y-112838990D01*
X153342383Y-112838990D02*
X152770955Y-113410419D01*
X152770955Y-113410419D02*
X153390002Y-113410419D01*
X153818574Y-113410419D02*
X153818574Y-112410419D01*
X153913812Y-113029466D02*
X154199526Y-113410419D01*
X154199526Y-112743752D02*
X153818574Y-113124704D01*
X153715431Y-79068721D02*
X154048764Y-79068721D01*
X154191621Y-79592531D02*
X153715431Y-79592531D01*
X153715431Y-79592531D02*
X153715431Y-78592531D01*
X153715431Y-78592531D02*
X154191621Y-78592531D01*
X154620193Y-78925864D02*
X154620193Y-79592531D01*
X154620193Y-79021102D02*
X154667812Y-78973483D01*
X154667812Y-78973483D02*
X154763050Y-78925864D01*
X154763050Y-78925864D02*
X154905907Y-78925864D01*
X154905907Y-78925864D02*
X155001145Y-78973483D01*
X155001145Y-78973483D02*
X155048764Y-79068721D01*
X155048764Y-79068721D02*
X155048764Y-79592531D01*
X155382098Y-78925864D02*
X155763050Y-78925864D01*
X155524955Y-78592531D02*
X155524955Y-79449673D01*
X155524955Y-79449673D02*
X155572574Y-79544912D01*
X155572574Y-79544912D02*
X155667812Y-79592531D01*
X155667812Y-79592531D02*
X155763050Y-79592531D01*
X156477336Y-79544912D02*
X156382098Y-79592531D01*
X156382098Y-79592531D02*
X156191622Y-79592531D01*
X156191622Y-79592531D02*
X156096384Y-79544912D01*
X156096384Y-79544912D02*
X156048765Y-79449673D01*
X156048765Y-79449673D02*
X156048765Y-79068721D01*
X156048765Y-79068721D02*
X156096384Y-78973483D01*
X156096384Y-78973483D02*
X156191622Y-78925864D01*
X156191622Y-78925864D02*
X156382098Y-78925864D01*
X156382098Y-78925864D02*
X156477336Y-78973483D01*
X156477336Y-78973483D02*
X156524955Y-79068721D01*
X156524955Y-79068721D02*
X156524955Y-79163959D01*
X156524955Y-79163959D02*
X156048765Y-79259197D01*
X156953527Y-79592531D02*
X156953527Y-78925864D01*
X156953527Y-79116340D02*
X157001146Y-79021102D01*
X157001146Y-79021102D02*
X157048765Y-78973483D01*
X157048765Y-78973483D02*
X157144003Y-78925864D01*
X157144003Y-78925864D02*
X157239241Y-78925864D01*
X157572575Y-78925864D02*
X157572575Y-79925864D01*
X157572575Y-78973483D02*
X157667813Y-78925864D01*
X157667813Y-78925864D02*
X157858289Y-78925864D01*
X157858289Y-78925864D02*
X157953527Y-78973483D01*
X157953527Y-78973483D02*
X158001146Y-79021102D01*
X158001146Y-79021102D02*
X158048765Y-79116340D01*
X158048765Y-79116340D02*
X158048765Y-79402054D01*
X158048765Y-79402054D02*
X158001146Y-79497292D01*
X158001146Y-79497292D02*
X157953527Y-79544912D01*
X157953527Y-79544912D02*
X157858289Y-79592531D01*
X157858289Y-79592531D02*
X157667813Y-79592531D01*
X157667813Y-79592531D02*
X157572575Y-79544912D01*
X158477337Y-79592531D02*
X158477337Y-78925864D01*
X158477337Y-79116340D02*
X158524956Y-79021102D01*
X158524956Y-79021102D02*
X158572575Y-78973483D01*
X158572575Y-78973483D02*
X158667813Y-78925864D01*
X158667813Y-78925864D02*
X158763051Y-78925864D01*
X159096385Y-79592531D02*
X159096385Y-78925864D01*
X159096385Y-78592531D02*
X159048766Y-78640150D01*
X159048766Y-78640150D02*
X159096385Y-78687769D01*
X159096385Y-78687769D02*
X159144004Y-78640150D01*
X159144004Y-78640150D02*
X159096385Y-78592531D01*
X159096385Y-78592531D02*
X159096385Y-78687769D01*
X159524956Y-79544912D02*
X159620194Y-79592531D01*
X159620194Y-79592531D02*
X159810670Y-79592531D01*
X159810670Y-79592531D02*
X159905908Y-79544912D01*
X159905908Y-79544912D02*
X159953527Y-79449673D01*
X159953527Y-79449673D02*
X159953527Y-79402054D01*
X159953527Y-79402054D02*
X159905908Y-79306816D01*
X159905908Y-79306816D02*
X159810670Y-79259197D01*
X159810670Y-79259197D02*
X159667813Y-79259197D01*
X159667813Y-79259197D02*
X159572575Y-79211578D01*
X159572575Y-79211578D02*
X159524956Y-79116340D01*
X159524956Y-79116340D02*
X159524956Y-79068721D01*
X159524956Y-79068721D02*
X159572575Y-78973483D01*
X159572575Y-78973483D02*
X159667813Y-78925864D01*
X159667813Y-78925864D02*
X159810670Y-78925864D01*
X159810670Y-78925864D02*
X159905908Y-78973483D01*
X160763051Y-79544912D02*
X160667813Y-79592531D01*
X160667813Y-79592531D02*
X160477337Y-79592531D01*
X160477337Y-79592531D02*
X160382099Y-79544912D01*
X160382099Y-79544912D02*
X160334480Y-79449673D01*
X160334480Y-79449673D02*
X160334480Y-79068721D01*
X160334480Y-79068721D02*
X160382099Y-78973483D01*
X160382099Y-78973483D02*
X160477337Y-78925864D01*
X160477337Y-78925864D02*
X160667813Y-78925864D01*
X160667813Y-78925864D02*
X160763051Y-78973483D01*
X160763051Y-78973483D02*
X160810670Y-79068721D01*
X160810670Y-79068721D02*
X160810670Y-79163959D01*
X160810670Y-79163959D02*
X160334480Y-79259197D01*
X153715431Y-81202475D02*
X153715431Y-80202475D01*
X153715431Y-80202475D02*
X154048764Y-80916760D01*
X154048764Y-80916760D02*
X154382097Y-80202475D01*
X154382097Y-80202475D02*
X154382097Y-81202475D01*
X155239240Y-81154856D02*
X155144002Y-81202475D01*
X155144002Y-81202475D02*
X154953526Y-81202475D01*
X154953526Y-81202475D02*
X154858288Y-81154856D01*
X154858288Y-81154856D02*
X154810669Y-81059617D01*
X154810669Y-81059617D02*
X154810669Y-80678665D01*
X154810669Y-80678665D02*
X154858288Y-80583427D01*
X154858288Y-80583427D02*
X154953526Y-80535808D01*
X154953526Y-80535808D02*
X155144002Y-80535808D01*
X155144002Y-80535808D02*
X155239240Y-80583427D01*
X155239240Y-80583427D02*
X155286859Y-80678665D01*
X155286859Y-80678665D02*
X155286859Y-80773903D01*
X155286859Y-80773903D02*
X154810669Y-80869141D01*
X155715431Y-81202475D02*
X155715431Y-80535808D01*
X155715431Y-80631046D02*
X155763050Y-80583427D01*
X155763050Y-80583427D02*
X155858288Y-80535808D01*
X155858288Y-80535808D02*
X156001145Y-80535808D01*
X156001145Y-80535808D02*
X156096383Y-80583427D01*
X156096383Y-80583427D02*
X156144002Y-80678665D01*
X156144002Y-80678665D02*
X156144002Y-81202475D01*
X156144002Y-80678665D02*
X156191621Y-80583427D01*
X156191621Y-80583427D02*
X156286859Y-80535808D01*
X156286859Y-80535808D02*
X156429716Y-80535808D01*
X156429716Y-80535808D02*
X156524955Y-80583427D01*
X156524955Y-80583427D02*
X156572574Y-80678665D01*
X156572574Y-80678665D02*
X156572574Y-81202475D01*
X157191621Y-81202475D02*
X157096383Y-81154856D01*
X157096383Y-81154856D02*
X157048764Y-81107236D01*
X157048764Y-81107236D02*
X157001145Y-81011998D01*
X157001145Y-81011998D02*
X157001145Y-80726284D01*
X157001145Y-80726284D02*
X157048764Y-80631046D01*
X157048764Y-80631046D02*
X157096383Y-80583427D01*
X157096383Y-80583427D02*
X157191621Y-80535808D01*
X157191621Y-80535808D02*
X157334478Y-80535808D01*
X157334478Y-80535808D02*
X157429716Y-80583427D01*
X157429716Y-80583427D02*
X157477335Y-80631046D01*
X157477335Y-80631046D02*
X157524954Y-80726284D01*
X157524954Y-80726284D02*
X157524954Y-81011998D01*
X157524954Y-81011998D02*
X157477335Y-81107236D01*
X157477335Y-81107236D02*
X157429716Y-81154856D01*
X157429716Y-81154856D02*
X157334478Y-81202475D01*
X157334478Y-81202475D02*
X157191621Y-81202475D01*
X157953526Y-81202475D02*
X157953526Y-80535808D01*
X157953526Y-80726284D02*
X158001145Y-80631046D01*
X158001145Y-80631046D02*
X158048764Y-80583427D01*
X158048764Y-80583427D02*
X158144002Y-80535808D01*
X158144002Y-80535808D02*
X158239240Y-80535808D01*
X158477336Y-80535808D02*
X158715431Y-81202475D01*
X158953526Y-80535808D02*
X158715431Y-81202475D01*
X158715431Y-81202475D02*
X158620193Y-81440570D01*
X158620193Y-81440570D02*
X158572574Y-81488189D01*
X158572574Y-81488189D02*
X158477336Y-81535808D01*
X153715431Y-82288609D02*
X154048764Y-82288609D01*
X154191621Y-82812419D02*
X153715431Y-82812419D01*
X153715431Y-82812419D02*
X153715431Y-81812419D01*
X153715431Y-81812419D02*
X154191621Y-81812419D01*
X154524955Y-82812419D02*
X155048764Y-82145752D01*
X154524955Y-82145752D02*
X155048764Y-82812419D01*
X155286860Y-82145752D02*
X155667812Y-82145752D01*
X155429717Y-81812419D02*
X155429717Y-82669561D01*
X155429717Y-82669561D02*
X155477336Y-82764800D01*
X155477336Y-82764800D02*
X155572574Y-82812419D01*
X155572574Y-82812419D02*
X155667812Y-82812419D01*
X156382098Y-82764800D02*
X156286860Y-82812419D01*
X156286860Y-82812419D02*
X156096384Y-82812419D01*
X156096384Y-82812419D02*
X156001146Y-82764800D01*
X156001146Y-82764800D02*
X155953527Y-82669561D01*
X155953527Y-82669561D02*
X155953527Y-82288609D01*
X155953527Y-82288609D02*
X156001146Y-82193371D01*
X156001146Y-82193371D02*
X156096384Y-82145752D01*
X156096384Y-82145752D02*
X156286860Y-82145752D01*
X156286860Y-82145752D02*
X156382098Y-82193371D01*
X156382098Y-82193371D02*
X156429717Y-82288609D01*
X156429717Y-82288609D02*
X156429717Y-82383847D01*
X156429717Y-82383847D02*
X155953527Y-82479085D01*
X156858289Y-82145752D02*
X156858289Y-82812419D01*
X156858289Y-82240990D02*
X156905908Y-82193371D01*
X156905908Y-82193371D02*
X157001146Y-82145752D01*
X157001146Y-82145752D02*
X157144003Y-82145752D01*
X157144003Y-82145752D02*
X157239241Y-82193371D01*
X157239241Y-82193371D02*
X157286860Y-82288609D01*
X157286860Y-82288609D02*
X157286860Y-82812419D01*
X158191622Y-82812419D02*
X158191622Y-81812419D01*
X158191622Y-82764800D02*
X158096384Y-82812419D01*
X158096384Y-82812419D02*
X157905908Y-82812419D01*
X157905908Y-82812419D02*
X157810670Y-82764800D01*
X157810670Y-82764800D02*
X157763051Y-82717180D01*
X157763051Y-82717180D02*
X157715432Y-82621942D01*
X157715432Y-82621942D02*
X157715432Y-82336228D01*
X157715432Y-82336228D02*
X157763051Y-82240990D01*
X157763051Y-82240990D02*
X157810670Y-82193371D01*
X157810670Y-82193371D02*
X157905908Y-82145752D01*
X157905908Y-82145752D02*
X158096384Y-82145752D01*
X158096384Y-82145752D02*
X158191622Y-82193371D01*
X159048765Y-82764800D02*
X158953527Y-82812419D01*
X158953527Y-82812419D02*
X158763051Y-82812419D01*
X158763051Y-82812419D02*
X158667813Y-82764800D01*
X158667813Y-82764800D02*
X158620194Y-82669561D01*
X158620194Y-82669561D02*
X158620194Y-82288609D01*
X158620194Y-82288609D02*
X158667813Y-82193371D01*
X158667813Y-82193371D02*
X158763051Y-82145752D01*
X158763051Y-82145752D02*
X158953527Y-82145752D01*
X158953527Y-82145752D02*
X159048765Y-82193371D01*
X159048765Y-82193371D02*
X159096384Y-82288609D01*
X159096384Y-82288609D02*
X159096384Y-82383847D01*
X159096384Y-82383847D02*
X158620194Y-82479085D01*
X159524956Y-82812419D02*
X159524956Y-82145752D01*
X159524956Y-82336228D02*
X159572575Y-82240990D01*
X159572575Y-82240990D02*
X159620194Y-82193371D01*
X159620194Y-82193371D02*
X159715432Y-82145752D01*
X159715432Y-82145752D02*
X159810670Y-82145752D01*
X140674002Y-112310419D02*
X140483526Y-112310419D01*
X140483526Y-112310419D02*
X140388288Y-112358038D01*
X140388288Y-112358038D02*
X140340669Y-112405657D01*
X140340669Y-112405657D02*
X140245431Y-112548514D01*
X140245431Y-112548514D02*
X140197812Y-112738990D01*
X140197812Y-112738990D02*
X140197812Y-113119942D01*
X140197812Y-113119942D02*
X140245431Y-113215180D01*
X140245431Y-113215180D02*
X140293050Y-113262800D01*
X140293050Y-113262800D02*
X140388288Y-113310419D01*
X140388288Y-113310419D02*
X140578764Y-113310419D01*
X140578764Y-113310419D02*
X140674002Y-113262800D01*
X140674002Y-113262800D02*
X140721621Y-113215180D01*
X140721621Y-113215180D02*
X140769240Y-113119942D01*
X140769240Y-113119942D02*
X140769240Y-112881847D01*
X140769240Y-112881847D02*
X140721621Y-112786609D01*
X140721621Y-112786609D02*
X140674002Y-112738990D01*
X140674002Y-112738990D02*
X140578764Y-112691371D01*
X140578764Y-112691371D02*
X140388288Y-112691371D01*
X140388288Y-112691371D02*
X140293050Y-112738990D01*
X140293050Y-112738990D02*
X140245431Y-112786609D01*
X140245431Y-112786609D02*
X140197812Y-112881847D01*
X141626383Y-112643752D02*
X141626383Y-113310419D01*
X141388288Y-112262800D02*
X141150193Y-112977085D01*
X141150193Y-112977085D02*
X141769240Y-112977085D01*
X142150193Y-113310419D02*
X142150193Y-112310419D01*
X142245431Y-112929466D02*
X142531145Y-113310419D01*
X142531145Y-112643752D02*
X142150193Y-113024704D01*
D11*
X153792880Y-108912819D02*
X153459547Y-108436628D01*
X153221452Y-108912819D02*
X153221452Y-107912819D01*
X153221452Y-107912819D02*
X153602404Y-107912819D01*
X153602404Y-107912819D02*
X153697642Y-107960438D01*
X153697642Y-107960438D02*
X153745261Y-108008057D01*
X153745261Y-108008057D02*
X153792880Y-108103295D01*
X153792880Y-108103295D02*
X153792880Y-108246152D01*
X153792880Y-108246152D02*
X153745261Y-108341390D01*
X153745261Y-108341390D02*
X153697642Y-108389009D01*
X153697642Y-108389009D02*
X153602404Y-108436628D01*
X153602404Y-108436628D02*
X153221452Y-108436628D01*
X154650023Y-107912819D02*
X154459547Y-107912819D01*
X154459547Y-107912819D02*
X154364309Y-107960438D01*
X154364309Y-107960438D02*
X154316690Y-108008057D01*
X154316690Y-108008057D02*
X154221452Y-108150914D01*
X154221452Y-108150914D02*
X154173833Y-108341390D01*
X154173833Y-108341390D02*
X154173833Y-108722342D01*
X154173833Y-108722342D02*
X154221452Y-108817580D01*
X154221452Y-108817580D02*
X154269071Y-108865200D01*
X154269071Y-108865200D02*
X154364309Y-108912819D01*
X154364309Y-108912819D02*
X154554785Y-108912819D01*
X154554785Y-108912819D02*
X154650023Y-108865200D01*
X154650023Y-108865200D02*
X154697642Y-108817580D01*
X154697642Y-108817580D02*
X154745261Y-108722342D01*
X154745261Y-108722342D02*
X154745261Y-108484247D01*
X154745261Y-108484247D02*
X154697642Y-108389009D01*
X154697642Y-108389009D02*
X154650023Y-108341390D01*
X154650023Y-108341390D02*
X154554785Y-108293771D01*
X154554785Y-108293771D02*
X154364309Y-108293771D01*
X154364309Y-108293771D02*
X154269071Y-108341390D01*
X154269071Y-108341390D02*
X154221452Y-108389009D01*
X154221452Y-108389009D02*
X154173833Y-108484247D01*
X150096366Y-97702666D02*
X149620175Y-98035999D01*
X150096366Y-98274094D02*
X149096366Y-98274094D01*
X149096366Y-98274094D02*
X149096366Y-97893142D01*
X149096366Y-97893142D02*
X149143985Y-97797904D01*
X149143985Y-97797904D02*
X149191604Y-97750285D01*
X149191604Y-97750285D02*
X149286842Y-97702666D01*
X149286842Y-97702666D02*
X149429699Y-97702666D01*
X149429699Y-97702666D02*
X149524937Y-97750285D01*
X149524937Y-97750285D02*
X149572556Y-97797904D01*
X149572556Y-97797904D02*
X149620175Y-97893142D01*
X149620175Y-97893142D02*
X149620175Y-98274094D01*
X149096366Y-96797904D02*
X149096366Y-97274094D01*
X149096366Y-97274094D02*
X149572556Y-97321713D01*
X149572556Y-97321713D02*
X149524937Y-97274094D01*
X149524937Y-97274094D02*
X149477318Y-97178856D01*
X149477318Y-97178856D02*
X149477318Y-96940761D01*
X149477318Y-96940761D02*
X149524937Y-96845523D01*
X149524937Y-96845523D02*
X149572556Y-96797904D01*
X149572556Y-96797904D02*
X149667794Y-96750285D01*
X149667794Y-96750285D02*
X149905889Y-96750285D01*
X149905889Y-96750285D02*
X150001127Y-96797904D01*
X150001127Y-96797904D02*
X150048747Y-96845523D01*
X150048747Y-96845523D02*
X150096366Y-96940761D01*
X150096366Y-96940761D02*
X150096366Y-97178856D01*
X150096366Y-97178856D02*
X150048747Y-97274094D01*
X150048747Y-97274094D02*
X150001127Y-97321713D01*
X148625642Y-90894819D02*
X148625642Y-91704342D01*
X148625642Y-91704342D02*
X148673261Y-91799580D01*
X148673261Y-91799580D02*
X148720880Y-91847200D01*
X148720880Y-91847200D02*
X148816118Y-91894819D01*
X148816118Y-91894819D02*
X149006594Y-91894819D01*
X149006594Y-91894819D02*
X149101832Y-91847200D01*
X149101832Y-91847200D02*
X149149451Y-91799580D01*
X149149451Y-91799580D02*
X149197070Y-91704342D01*
X149197070Y-91704342D02*
X149197070Y-90894819D01*
X149625642Y-90990057D02*
X149673261Y-90942438D01*
X149673261Y-90942438D02*
X149768499Y-90894819D01*
X149768499Y-90894819D02*
X150006594Y-90894819D01*
X150006594Y-90894819D02*
X150101832Y-90942438D01*
X150101832Y-90942438D02*
X150149451Y-90990057D01*
X150149451Y-90990057D02*
X150197070Y-91085295D01*
X150197070Y-91085295D02*
X150197070Y-91180533D01*
X150197070Y-91180533D02*
X150149451Y-91323390D01*
X150149451Y-91323390D02*
X149578023Y-91894819D01*
X149578023Y-91894819D02*
X150197070Y-91894819D01*
X150998880Y-110690819D02*
X150665547Y-110214628D01*
X150427452Y-110690819D02*
X150427452Y-109690819D01*
X150427452Y-109690819D02*
X150808404Y-109690819D01*
X150808404Y-109690819D02*
X150903642Y-109738438D01*
X150903642Y-109738438D02*
X150951261Y-109786057D01*
X150951261Y-109786057D02*
X150998880Y-109881295D01*
X150998880Y-109881295D02*
X150998880Y-110024152D01*
X150998880Y-110024152D02*
X150951261Y-110119390D01*
X150951261Y-110119390D02*
X150903642Y-110167009D01*
X150903642Y-110167009D02*
X150808404Y-110214628D01*
X150808404Y-110214628D02*
X150427452Y-110214628D01*
X151951261Y-110690819D02*
X151379833Y-110690819D01*
X151665547Y-110690819D02*
X151665547Y-109690819D01*
X151665547Y-109690819D02*
X151570309Y-109833676D01*
X151570309Y-109833676D02*
X151475071Y-109928914D01*
X151475071Y-109928914D02*
X151379833Y-109976533D01*
X137894642Y-91754819D02*
X137894642Y-92564342D01*
X137894642Y-92564342D02*
X137942261Y-92659580D01*
X137942261Y-92659580D02*
X137989880Y-92707200D01*
X137989880Y-92707200D02*
X138085118Y-92754819D01*
X138085118Y-92754819D02*
X138275594Y-92754819D01*
X138275594Y-92754819D02*
X138370832Y-92707200D01*
X138370832Y-92707200D02*
X138418451Y-92659580D01*
X138418451Y-92659580D02*
X138466070Y-92564342D01*
X138466070Y-92564342D02*
X138466070Y-91754819D01*
X139466070Y-92754819D02*
X138894642Y-92754819D01*
X139180356Y-92754819D02*
X139180356Y-91754819D01*
X139180356Y-91754819D02*
X139085118Y-91897676D01*
X139085118Y-91897676D02*
X138989880Y-91992914D01*
X138989880Y-91992914D02*
X138894642Y-92040533D01*
X137294642Y-101354819D02*
X137294642Y-102164342D01*
X137294642Y-102164342D02*
X137342261Y-102259580D01*
X137342261Y-102259580D02*
X137389880Y-102307200D01*
X137389880Y-102307200D02*
X137485118Y-102354819D01*
X137485118Y-102354819D02*
X137675594Y-102354819D01*
X137675594Y-102354819D02*
X137770832Y-102307200D01*
X137770832Y-102307200D02*
X137818451Y-102259580D01*
X137818451Y-102259580D02*
X137866070Y-102164342D01*
X137866070Y-102164342D02*
X137866070Y-101354819D01*
X138770832Y-101688152D02*
X138770832Y-102354819D01*
X138532737Y-101307200D02*
X138294642Y-102021485D01*
X138294642Y-102021485D02*
X138913689Y-102021485D01*
X137523213Y-108254819D02*
X137523213Y-108969104D01*
X137523213Y-108969104D02*
X137475594Y-109111961D01*
X137475594Y-109111961D02*
X137380356Y-109207200D01*
X137380356Y-109207200D02*
X137237499Y-109254819D01*
X137237499Y-109254819D02*
X137142261Y-109254819D01*
X137951785Y-108350057D02*
X137999404Y-108302438D01*
X137999404Y-108302438D02*
X138094642Y-108254819D01*
X138094642Y-108254819D02*
X138332737Y-108254819D01*
X138332737Y-108254819D02*
X138427975Y-108302438D01*
X138427975Y-108302438D02*
X138475594Y-108350057D01*
X138475594Y-108350057D02*
X138523213Y-108445295D01*
X138523213Y-108445295D02*
X138523213Y-108540533D01*
X138523213Y-108540533D02*
X138475594Y-108683390D01*
X138475594Y-108683390D02*
X137904166Y-109254819D01*
X137904166Y-109254819D02*
X138523213Y-109254819D01*
X137989880Y-87059580D02*
X137942261Y-87107200D01*
X137942261Y-87107200D02*
X137799404Y-87154819D01*
X137799404Y-87154819D02*
X137704166Y-87154819D01*
X137704166Y-87154819D02*
X137561309Y-87107200D01*
X137561309Y-87107200D02*
X137466071Y-87011961D01*
X137466071Y-87011961D02*
X137418452Y-86916723D01*
X137418452Y-86916723D02*
X137370833Y-86726247D01*
X137370833Y-86726247D02*
X137370833Y-86583390D01*
X137370833Y-86583390D02*
X137418452Y-86392914D01*
X137418452Y-86392914D02*
X137466071Y-86297676D01*
X137466071Y-86297676D02*
X137561309Y-86202438D01*
X137561309Y-86202438D02*
X137704166Y-86154819D01*
X137704166Y-86154819D02*
X137799404Y-86154819D01*
X137799404Y-86154819D02*
X137942261Y-86202438D01*
X137942261Y-86202438D02*
X137989880Y-86250057D01*
X138370833Y-86250057D02*
X138418452Y-86202438D01*
X138418452Y-86202438D02*
X138513690Y-86154819D01*
X138513690Y-86154819D02*
X138751785Y-86154819D01*
X138751785Y-86154819D02*
X138847023Y-86202438D01*
X138847023Y-86202438D02*
X138894642Y-86250057D01*
X138894642Y-86250057D02*
X138942261Y-86345295D01*
X138942261Y-86345295D02*
X138942261Y-86440533D01*
X138942261Y-86440533D02*
X138894642Y-86583390D01*
X138894642Y-86583390D02*
X138323214Y-87154819D01*
X138323214Y-87154819D02*
X138942261Y-87154819D01*
X137689880Y-107154819D02*
X137356547Y-106678628D01*
X137118452Y-107154819D02*
X137118452Y-106154819D01*
X137118452Y-106154819D02*
X137499404Y-106154819D01*
X137499404Y-106154819D02*
X137594642Y-106202438D01*
X137594642Y-106202438D02*
X137642261Y-106250057D01*
X137642261Y-106250057D02*
X137689880Y-106345295D01*
X137689880Y-106345295D02*
X137689880Y-106488152D01*
X137689880Y-106488152D02*
X137642261Y-106583390D01*
X137642261Y-106583390D02*
X137594642Y-106631009D01*
X137594642Y-106631009D02*
X137499404Y-106678628D01*
X137499404Y-106678628D02*
X137118452Y-106678628D01*
X138070833Y-106250057D02*
X138118452Y-106202438D01*
X138118452Y-106202438D02*
X138213690Y-106154819D01*
X138213690Y-106154819D02*
X138451785Y-106154819D01*
X138451785Y-106154819D02*
X138547023Y-106202438D01*
X138547023Y-106202438D02*
X138594642Y-106250057D01*
X138594642Y-106250057D02*
X138642261Y-106345295D01*
X138642261Y-106345295D02*
X138642261Y-106440533D01*
X138642261Y-106440533D02*
X138594642Y-106583390D01*
X138594642Y-106583390D02*
X138023214Y-107154819D01*
X138023214Y-107154819D02*
X138642261Y-107154819D01*
X138298880Y-110944819D02*
X137965547Y-110468628D01*
X137727452Y-110944819D02*
X137727452Y-109944819D01*
X137727452Y-109944819D02*
X138108404Y-109944819D01*
X138108404Y-109944819D02*
X138203642Y-109992438D01*
X138203642Y-109992438D02*
X138251261Y-110040057D01*
X138251261Y-110040057D02*
X138298880Y-110135295D01*
X138298880Y-110135295D02*
X138298880Y-110278152D01*
X138298880Y-110278152D02*
X138251261Y-110373390D01*
X138251261Y-110373390D02*
X138203642Y-110421009D01*
X138203642Y-110421009D02*
X138108404Y-110468628D01*
X138108404Y-110468628D02*
X137727452Y-110468628D01*
X139156023Y-110278152D02*
X139156023Y-110944819D01*
X138917928Y-109897200D02*
X138679833Y-110611485D01*
X138679833Y-110611485D02*
X139298880Y-110611485D01*
X159689880Y-93659580D02*
X159642261Y-93707200D01*
X159642261Y-93707200D02*
X159499404Y-93754819D01*
X159499404Y-93754819D02*
X159404166Y-93754819D01*
X159404166Y-93754819D02*
X159261309Y-93707200D01*
X159261309Y-93707200D02*
X159166071Y-93611961D01*
X159166071Y-93611961D02*
X159118452Y-93516723D01*
X159118452Y-93516723D02*
X159070833Y-93326247D01*
X159070833Y-93326247D02*
X159070833Y-93183390D01*
X159070833Y-93183390D02*
X159118452Y-92992914D01*
X159118452Y-92992914D02*
X159166071Y-92897676D01*
X159166071Y-92897676D02*
X159261309Y-92802438D01*
X159261309Y-92802438D02*
X159404166Y-92754819D01*
X159404166Y-92754819D02*
X159499404Y-92754819D01*
X159499404Y-92754819D02*
X159642261Y-92802438D01*
X159642261Y-92802438D02*
X159689880Y-92850057D01*
X160642261Y-93754819D02*
X160070833Y-93754819D01*
X160356547Y-93754819D02*
X160356547Y-92754819D01*
X160356547Y-92754819D02*
X160261309Y-92897676D01*
X160261309Y-92897676D02*
X160166071Y-92992914D01*
X160166071Y-92992914D02*
X160070833Y-93040533D01*
X144489880Y-112254819D02*
X144156547Y-111778628D01*
X143918452Y-112254819D02*
X143918452Y-111254819D01*
X143918452Y-111254819D02*
X144299404Y-111254819D01*
X144299404Y-111254819D02*
X144394642Y-111302438D01*
X144394642Y-111302438D02*
X144442261Y-111350057D01*
X144442261Y-111350057D02*
X144489880Y-111445295D01*
X144489880Y-111445295D02*
X144489880Y-111588152D01*
X144489880Y-111588152D02*
X144442261Y-111683390D01*
X144442261Y-111683390D02*
X144394642Y-111731009D01*
X144394642Y-111731009D02*
X144299404Y-111778628D01*
X144299404Y-111778628D02*
X143918452Y-111778628D01*
X144823214Y-111254819D02*
X145442261Y-111254819D01*
X145442261Y-111254819D02*
X145108928Y-111635771D01*
X145108928Y-111635771D02*
X145251785Y-111635771D01*
X145251785Y-111635771D02*
X145347023Y-111683390D01*
X145347023Y-111683390D02*
X145394642Y-111731009D01*
X145394642Y-111731009D02*
X145442261Y-111826247D01*
X145442261Y-111826247D02*
X145442261Y-112064342D01*
X145442261Y-112064342D02*
X145394642Y-112159580D01*
X145394642Y-112159580D02*
X145347023Y-112207200D01*
X145347023Y-112207200D02*
X145251785Y-112254819D01*
X145251785Y-112254819D02*
X144966071Y-112254819D01*
X144966071Y-112254819D02*
X144870833Y-112207200D01*
X144870833Y-112207200D02*
X144823214Y-112159580D01*
X137989880Y-96759580D02*
X137942261Y-96807200D01*
X137942261Y-96807200D02*
X137799404Y-96854819D01*
X137799404Y-96854819D02*
X137704166Y-96854819D01*
X137704166Y-96854819D02*
X137561309Y-96807200D01*
X137561309Y-96807200D02*
X137466071Y-96711961D01*
X137466071Y-96711961D02*
X137418452Y-96616723D01*
X137418452Y-96616723D02*
X137370833Y-96426247D01*
X137370833Y-96426247D02*
X137370833Y-96283390D01*
X137370833Y-96283390D02*
X137418452Y-96092914D01*
X137418452Y-96092914D02*
X137466071Y-95997676D01*
X137466071Y-95997676D02*
X137561309Y-95902438D01*
X137561309Y-95902438D02*
X137704166Y-95854819D01*
X137704166Y-95854819D02*
X137799404Y-95854819D01*
X137799404Y-95854819D02*
X137942261Y-95902438D01*
X137942261Y-95902438D02*
X137989880Y-95950057D01*
X138323214Y-95854819D02*
X138942261Y-95854819D01*
X138942261Y-95854819D02*
X138608928Y-96235771D01*
X138608928Y-96235771D02*
X138751785Y-96235771D01*
X138751785Y-96235771D02*
X138847023Y-96283390D01*
X138847023Y-96283390D02*
X138894642Y-96331009D01*
X138894642Y-96331009D02*
X138942261Y-96426247D01*
X138942261Y-96426247D02*
X138942261Y-96664342D01*
X138942261Y-96664342D02*
X138894642Y-96759580D01*
X138894642Y-96759580D02*
X138847023Y-96807200D01*
X138847023Y-96807200D02*
X138751785Y-96854819D01*
X138751785Y-96854819D02*
X138466071Y-96854819D01*
X138466071Y-96854819D02*
X138370833Y-96807200D01*
X138370833Y-96807200D02*
X138323214Y-96759580D01*
X137523213Y-80054819D02*
X137523213Y-80769104D01*
X137523213Y-80769104D02*
X137475594Y-80911961D01*
X137475594Y-80911961D02*
X137380356Y-81007200D01*
X137380356Y-81007200D02*
X137237499Y-81054819D01*
X137237499Y-81054819D02*
X137142261Y-81054819D01*
X138523213Y-81054819D02*
X137951785Y-81054819D01*
X138237499Y-81054819D02*
X138237499Y-80054819D01*
X138237499Y-80054819D02*
X138142261Y-80197676D01*
X138142261Y-80197676D02*
X138047023Y-80292914D01*
X138047023Y-80292914D02*
X137951785Y-80340533D01*
D12*
%TO.C,R6*%
X154214271Y-110250500D02*
X153704823Y-110250500D01*
X154214271Y-109205500D02*
X153704823Y-109205500D01*
%TO.C,R5*%
X150164047Y-94233276D02*
X150164047Y-94742724D01*
X149119047Y-94233276D02*
X149119047Y-94742724D01*
%TO.C,U2*%
X150541547Y-96992500D02*
X150541547Y-87792500D01*
X150541547Y-96992500D02*
X150541547Y-106192500D01*
X158861547Y-96992500D02*
X158861547Y-87792500D01*
X158861547Y-96992500D02*
X158861547Y-106192500D01*
X151191547Y-108057500D02*
X150711547Y-108057500D01*
X150951547Y-107727500D01*
X151191547Y-108057500D01*
G36*
X151191547Y-108057500D02*
G01*
X150711547Y-108057500D01*
X150951547Y-107727500D01*
X151191547Y-108057500D01*
G37*
%TO.C,R1*%
X148101823Y-109777500D02*
X148611271Y-109777500D01*
X148101823Y-110822500D02*
X148611271Y-110822500D01*
%TO.C,U1*%
X139471547Y-88542500D02*
X139471547Y-86592500D01*
X139471547Y-88542500D02*
X139471547Y-90492500D01*
X148341547Y-88542500D02*
X148341547Y-86592500D01*
X148341547Y-88542500D02*
X148341547Y-90492500D01*
X139536547Y-91242500D02*
X139206547Y-91482500D01*
X139206547Y-91002500D01*
X139536547Y-91242500D01*
G36*
X139536547Y-91242500D02*
G01*
X139206547Y-91482500D01*
X139206547Y-91002500D01*
X139536547Y-91242500D01*
G37*
%TO.C,U4*%
X139471547Y-98767500D02*
X139471547Y-96817500D01*
X139471547Y-98767500D02*
X139471547Y-100717500D01*
X148341547Y-98767500D02*
X148341547Y-96817500D01*
X148341547Y-98767500D02*
X148341547Y-100717500D01*
X139536547Y-101467500D02*
X139206547Y-101707500D01*
X139206547Y-101227500D01*
X139536547Y-101467500D01*
G36*
X139536547Y-101467500D02*
G01*
X139206547Y-101707500D01*
X139206547Y-101227500D01*
X139536547Y-101467500D01*
G37*
%TO.C,J2*%
X139006547Y-103695000D02*
X139006547Y-108895000D01*
X146686547Y-103695000D02*
X139006547Y-103695000D01*
X146686547Y-103695000D02*
X146686547Y-106295000D01*
X146686547Y-106295000D02*
X149286547Y-106295000D01*
X147956547Y-103695000D02*
X149286547Y-103695000D01*
X149286547Y-103695000D02*
X149286547Y-105025000D01*
X149286547Y-106295000D02*
X149286547Y-108895000D01*
X149286547Y-108895000D02*
X139006547Y-108895000D01*
%TO.C,C2*%
X137681547Y-88738733D02*
X137681547Y-89031267D01*
X138701547Y-88738733D02*
X138701547Y-89031267D01*
%TO.C,R2*%
X137234047Y-104754724D02*
X137234047Y-104245276D01*
X138279047Y-104754724D02*
X138279047Y-104245276D01*
%TO.C,R4*%
X141001823Y-109777500D02*
X141511271Y-109777500D01*
X141001823Y-110822500D02*
X141511271Y-110822500D01*
%TO.C,C1*%
X159291547Y-96846267D02*
X159291547Y-96553733D01*
X160311547Y-96846267D02*
X160311547Y-96553733D01*
%TO.C,R3*%
X144501823Y-109777500D02*
X145011271Y-109777500D01*
X144501823Y-110822500D02*
X145011271Y-110822500D01*
%TO.C,C3*%
X137681547Y-98328733D02*
X137681547Y-98621267D01*
X138701547Y-98328733D02*
X138701547Y-98621267D01*
%TO.C,J1*%
X138786547Y-78045000D02*
X151606547Y-78045000D01*
X138786547Y-80645000D02*
X138786547Y-78045000D01*
X138786547Y-83245000D02*
X138786547Y-81915000D01*
X140116547Y-83245000D02*
X138786547Y-83245000D01*
X141386547Y-80645000D02*
X138786547Y-80645000D01*
X141386547Y-83245000D02*
X141386547Y-80645000D01*
X141386547Y-83245000D02*
X151606547Y-83245000D01*
X151606547Y-83245000D02*
X151606547Y-78045000D01*
%TD*%
M02*
