M48
; DRILL file {KiCad 8.0.8-8.0.8-0~ubuntu24.04.1} date 2025-02-10T11:27:57-0800
; FORMAT={-:-/ absolute / inch / decimal}
; #@! TF.CreationDate,2025-02-10T11:27:57-08:00
; #@! TF.GenerationSoftware,Kicad,Pcbnew,8.0.8-8.0.8-0~ubuntu24.04.1
; #@! TF.FileFunction,Plated,1,2,PTH
FMAT,2
INCH
; #@! TA.AperFunction,Plated,PTH,ViaDrill
T1C0.0197
; #@! TA.AperFunction,Plated,PTH,ComponentDrill
T2C0.0394
%
G90
G05
T1
X5.4195Y-3.7047
X5.4392Y-3.9646
X5.4432Y-3.5906
X5.4904Y-3.843
X5.5363Y-3.912
X5.5692Y-4.2913
X5.6715Y-4.2992
X5.7148Y-3.7244
X5.766Y-3.7244
X5.7778Y-4.2992
X5.8115Y-3.5173
X5.8176Y-3.8728
X5.8184Y-3.32
X5.8447Y-4.0394
X5.8775Y-3.9672
X5.9253Y-3.9035
X5.9312Y-3.29
X5.9405Y-3.9542
X5.9414Y-3.85
X5.9414Y-4.2775
X5.9637Y-3.3523
X5.9797Y-3.7972
X5.9983Y-3.2756
X6.0214Y-3.85
X6.0414Y-4.06
X6.0586Y-4.4121
X6.1014Y-3.76
X6.1123Y-4.2604
X6.14Y-4.3622
X6.2209Y-4.0291
X6.2213Y-3.89
X6.3414Y-3.82
X6.3661Y-4.3815
X6.6099Y-2.478
X6.7012Y-2.4885
X6.7057Y-2.5355
T2
X5.5164Y-3.125
X5.5164Y-3.225
X5.5251Y-4.1348
X5.5251Y-4.2348
X5.6164Y-3.125
X5.6164Y-3.225
X5.6251Y-4.1348
X5.6251Y-4.2348
X5.7164Y-3.125
X5.7164Y-3.225
X5.7251Y-4.1348
X5.7251Y-4.2348
X5.8164Y-3.125
X5.8164Y-3.225
X5.8251Y-4.1348
X5.8251Y-4.2348
X5.9164Y-3.125
X5.9164Y-3.225
X6.4414Y-3.1
X6.4414Y-3.2
X6.4414Y-3.3
X6.4414Y-3.4
X6.4414Y-3.5
X6.4414Y-3.6
X6.4414Y-3.7
X6.4414Y-3.8
X6.4414Y-3.9
X6.4414Y-4.0
X6.4414Y-4.1
X6.4414Y-4.2
X6.4414Y-4.3
X6.4414Y-4.4
X6.5414Y-3.1
X6.5414Y-3.2
X6.5414Y-3.3
X6.5414Y-3.4
X6.5414Y-3.5
X6.5414Y-3.6
X6.5414Y-3.7
X6.5414Y-3.8
X6.5414Y-3.9
X6.5414Y-4.0
X6.5414Y-4.1
X6.5414Y-4.2
X6.5414Y-4.3
X6.5414Y-4.4
X6.5914Y-2.0
X6.5914Y-2.1
X6.5914Y-2.2
X6.5914Y-2.3
X6.5914Y-2.4
X6.6914Y-2.0
X6.6914Y-2.1
X6.6914Y-2.2
X6.6914Y-2.3
X6.6914Y-2.4
M30
