%TF.GenerationSoftware,KiCad,Pcbnew,8.0.8-8.0.8-0~ubuntu24.04.1*%
%TF.CreationDate,2025-02-10T11:28:00-08:00*%
%TF.ProjectId,mem_ext_board,6d656d5f-6578-4745-9f62-6f6172642e6b,rev?*%
%TF.SameCoordinates,Original*%
%TF.FileFunction,Copper,L2,Bot*%
%TF.FilePolarity,Positive*%
%FSLAX46Y46*%
G04 Gerber Fmt 4.6, Leading zero omitted, Abs format (unit mm)*
G04 Created by KiCad (PCBNEW 8.0.8-8.0.8-0~ubuntu24.04.1) date 2025-02-10 11:28:00*
%MOMM*%
%LPD*%
G01*
G04 APERTURE LIST*
%TA.AperFunction,ComponentPad*%
%ADD10R,1.700000X1.700000*%
%TD*%
%TA.AperFunction,ComponentPad*%
%ADD11O,1.700000X1.700000*%
%TD*%
%TA.AperFunction,ViaPad*%
%ADD12C,1.000000*%
%TD*%
%TA.AperFunction,Conductor*%
%ADD13C,0.200000*%
%TD*%
%TA.AperFunction,Conductor*%
%ADD14C,1.000000*%
%TD*%
G04 APERTURE END LIST*
D10*
%TO.P,J2,1,Pin_1*%
%TO.N,Net-(J2-Pin_1)*%
X147956547Y-105025000D03*
D11*
%TO.P,J2,2,Pin_2*%
%TO.N,Net-(J2-Pin_2)*%
X147956547Y-107565000D03*
%TO.P,J2,3,Pin_3*%
%TO.N,/A17*%
X145416547Y-105025000D03*
%TO.P,J2,4,Pin_4*%
%TO.N,Net-(J2-Pin_4)*%
X145416547Y-107565000D03*
%TO.P,J2,5,Pin_5*%
%TO.N,/A18*%
X142876547Y-105025000D03*
%TO.P,J2,6,Pin_6*%
%TO.N,Net-(J2-Pin_6)*%
X142876547Y-107565000D03*
%TO.P,J2,7,Pin_7*%
%TO.N,Net-(J2-Pin_7)*%
X140336547Y-105025000D03*
%TO.P,J2,8,Pin_8*%
%TO.N,+5V*%
X140336547Y-107565000D03*
%TD*%
D10*
%TO.P,J1,1,Pin_1*%
%TO.N,GND*%
X140116547Y-81915000D03*
D11*
%TO.P,J1,2,Pin_2*%
%TO.N,+5V*%
X140116547Y-79375000D03*
%TO.P,J1,3,Pin_3*%
%TO.N,GND*%
X142656547Y-81915000D03*
%TO.P,J1,4,Pin_4*%
X142656547Y-79375000D03*
%TO.P,J1,5,Pin_5*%
%TO.N,/A21*%
X145196547Y-81915000D03*
%TO.P,J1,6,Pin_6*%
%TO.N,/A20*%
X145196547Y-79375000D03*
%TO.P,J1,7,Pin_7*%
%TO.N,/A19*%
X147736547Y-81915000D03*
%TO.P,J1,8,Pin_8*%
%TO.N,/A18*%
X147736547Y-79375000D03*
%TO.P,J1,9,Pin_9*%
%TO.N,/A17*%
X150276547Y-81915000D03*
%TO.P,J1,10,Pin_10*%
%TO.N,/A16*%
X150276547Y-79375000D03*
%TD*%
D10*
%TO.P,J4,1,Pin_1*%
%TO.N,GND*%
X167421547Y-50800000D03*
D11*
%TO.P,J4,2,Pin_2*%
%TO.N,+5V*%
X169961547Y-50800000D03*
%TO.P,J4,3,Pin_3*%
%TO.N,GND*%
X167421547Y-53340000D03*
%TO.P,J4,4,Pin_4*%
X169961547Y-53340000D03*
%TO.P,J4,5,Pin_5*%
%TO.N,/A21*%
X167421547Y-55880000D03*
%TO.P,J4,6,Pin_6*%
%TO.N,/A20*%
X169961547Y-55880000D03*
%TO.P,J4,7,Pin_7*%
%TO.N,/A19*%
X167421547Y-58420000D03*
%TO.P,J4,8,Pin_8*%
%TO.N,/A18*%
X169961547Y-58420000D03*
%TO.P,J4,9,Pin_9*%
%TO.N,/A17*%
X167421547Y-60960000D03*
%TO.P,J4,10,Pin_10*%
%TO.N,/A16*%
X169961547Y-60960000D03*
%TD*%
D10*
%TO.P,J3,1,Pin_1*%
%TO.N,/~{RFSH}*%
X163611547Y-78740000D03*
D11*
%TO.P,J3,2,Pin_2*%
%TO.N,/~{MREQ}*%
X166151547Y-78740000D03*
%TO.P,J3,3,Pin_3*%
%TO.N,/D6*%
X163611547Y-81280000D03*
%TO.P,J3,4,Pin_4*%
%TO.N,/D7*%
X166151547Y-81280000D03*
%TO.P,J3,5,Pin_5*%
%TO.N,/D4*%
X163611547Y-83820000D03*
%TO.P,J3,6,Pin_6*%
%TO.N,/D5*%
X166151547Y-83820000D03*
%TO.P,J3,7,Pin_7*%
%TO.N,/D2*%
X163611547Y-86360000D03*
%TO.P,J3,8,Pin_8*%
%TO.N,/D3*%
X166151547Y-86360000D03*
%TO.P,J3,9,Pin_9*%
%TO.N,/D0*%
X163611547Y-88900000D03*
%TO.P,J3,10,Pin_10*%
%TO.N,/D1*%
X166151547Y-88900000D03*
%TO.P,J3,11,Pin_11*%
%TO.N,/A6*%
X163611547Y-91440000D03*
%TO.P,J3,12,Pin_12*%
%TO.N,/A7*%
X166151547Y-91440000D03*
%TO.P,J3,13,Pin_13*%
%TO.N,/A4*%
X163611547Y-93980000D03*
%TO.P,J3,14,Pin_14*%
%TO.N,/A5*%
X166151547Y-93980000D03*
%TO.P,J3,15,Pin_15*%
%TO.N,/A2*%
X163611547Y-96520000D03*
%TO.P,J3,16,Pin_16*%
%TO.N,/A3*%
X166151547Y-96520000D03*
%TO.P,J3,17,Pin_17*%
%TO.N,/A0*%
X163611547Y-99060000D03*
%TO.P,J3,18,Pin_18*%
%TO.N,/A1*%
X166151547Y-99060000D03*
%TO.P,J3,19,Pin_19*%
%TO.N,/A14*%
X163611547Y-101600000D03*
%TO.P,J3,20,Pin_20*%
%TO.N,/A15*%
X166151547Y-101600000D03*
%TO.P,J3,21,Pin_21*%
%TO.N,/A12*%
X163611547Y-104140000D03*
%TO.P,J3,22,Pin_22*%
%TO.N,/A13*%
X166151547Y-104140000D03*
%TO.P,J3,23,Pin_23*%
%TO.N,/A10*%
X163611547Y-106680000D03*
%TO.P,J3,24,Pin_24*%
%TO.N,/A11*%
X166151547Y-106680000D03*
%TO.P,J3,25,Pin_25*%
%TO.N,/A8*%
X163611547Y-109220000D03*
%TO.P,J3,26,Pin_26*%
%TO.N,/A9*%
X166151547Y-109220000D03*
%TO.P,J3,27,Pin_27*%
%TO.N,/~{WR}*%
X163611547Y-111760000D03*
%TO.P,J3,28,Pin_28*%
%TO.N,/~{RD}*%
X166151547Y-111760000D03*
%TD*%
D12*
%TO.N,/~{RD}*%
X151884361Y-96447814D03*
%TO.N,GND*%
X154975547Y-95504000D03*
X138156547Y-100700000D03*
X161071547Y-97028000D03*
X146456547Y-94600000D03*
X138256547Y-91200000D03*
X147611547Y-89340000D03*
X148456547Y-102600000D03*
X145156547Y-94600000D03*
%TO.N,+5V*%
X158011547Y-102340000D03*
X141456547Y-109000000D03*
X144056547Y-109200000D03*
X140622233Y-99365686D03*
X155956547Y-110800000D03*
X139456547Y-97612500D03*
X137656547Y-94100000D03*
X146756547Y-109200000D03*
X158021547Y-98806000D03*
X153888406Y-112068141D03*
%TO.N,/A16*%
X170325972Y-64401857D03*
%TO.N,/A17*%
X150501357Y-99147752D03*
X170209734Y-63207498D03*
X149288361Y-100765678D03*
%TO.N,/A18*%
X150911547Y-108649436D03*
X155251547Y-108213000D03*
%TO.N,/A20*%
X167891547Y-62940000D03*
%TO.N,/~{RD}*%
X161698205Y-111290000D03*
X152943547Y-97790000D03*
%TO.N,/~{MREQ}*%
X150911547Y-97790000D03*
X152356547Y-83200000D03*
X150651547Y-83566000D03*
X147766125Y-98368000D03*
%TO.N,/~{CS}*%
X147786547Y-84328000D03*
X151477233Y-85147686D03*
%TO.N,/MA14*%
X150888362Y-100436814D03*
X153451547Y-103124000D03*
%TD*%
D13*
%TO.N,/A18*%
X154815111Y-108649436D02*
X150911547Y-108649436D01*
X155251547Y-108213000D02*
X154815111Y-108649436D01*
D14*
%TO.N,+5V*%
X158021547Y-102330000D02*
X158021547Y-98806000D01*
X158011547Y-102340000D02*
X158021547Y-102330000D01*
D13*
%TO.N,/MA14*%
X153451547Y-103124000D02*
X150888362Y-100560815D01*
X150888362Y-100560815D02*
X150888362Y-100436814D01*
%TO.N,/~{CS}*%
X147786547Y-84328000D02*
X148606233Y-85147686D01*
X148606233Y-85147686D02*
X151477233Y-85147686D01*
%TO.N,/~{MREQ}*%
X150651547Y-83566000D02*
X151017547Y-83200000D01*
X151017547Y-83200000D02*
X152356547Y-83200000D01*
%TO.N,/~{RD}*%
X151884361Y-96447814D02*
X151956547Y-96520000D01*
X151956547Y-96520000D02*
X151956547Y-96803000D01*
X151956547Y-96803000D02*
X152943547Y-97790000D01*
%TO.N,/~{MREQ}*%
X147793547Y-98368000D02*
X147766125Y-98368000D01*
X150911547Y-97790000D02*
X148371547Y-97790000D01*
X148371547Y-97790000D02*
X147793547Y-98368000D01*
D14*
%TO.N,GND*%
X142656547Y-79375000D02*
X142656547Y-76835000D01*
X140116547Y-81915000D02*
X137576547Y-81915000D01*
X142656547Y-79375000D02*
X142656547Y-81915000D01*
X167421547Y-53340000D02*
X172011547Y-53340000D01*
X140116547Y-81915000D02*
X140116547Y-83820000D01*
X167421547Y-50800000D02*
X167421547Y-53340000D01*
X142656547Y-81915000D02*
X140116547Y-81915000D01*
X142656547Y-81915000D02*
X142656547Y-83820000D01*
%TO.N,+5V*%
X153888406Y-112068141D02*
X154788406Y-112068141D01*
X139456547Y-97612500D02*
X139456547Y-98200000D01*
X137656547Y-95812500D02*
X137656547Y-94100000D01*
X139456547Y-97612500D02*
X137656547Y-95812500D01*
X154788406Y-112068141D02*
X155956547Y-110900000D01*
X139456547Y-98200000D02*
X140622233Y-99365686D01*
D13*
X146756547Y-109200000D02*
X144056547Y-109200000D01*
D14*
X155956547Y-110900000D02*
X155956547Y-110800000D01*
D13*
X143856547Y-109000000D02*
X144056547Y-109200000D01*
X141456547Y-109000000D02*
X143856547Y-109000000D01*
%TO.N,/A16*%
X171009733Y-62008186D02*
X169961547Y-60960000D01*
X170325972Y-64401857D02*
X171009733Y-63718096D01*
X171009733Y-63718096D02*
X171009733Y-62008186D01*
%TO.N,/A17*%
X167560176Y-63740000D02*
X167091547Y-63271371D01*
X168822918Y-63140000D02*
X168222918Y-63740000D01*
X170209734Y-63207498D02*
X170142236Y-63140000D01*
X170142236Y-63140000D02*
X168822918Y-63140000D01*
X167091547Y-61290000D02*
X167421547Y-60960000D01*
X150501357Y-99147752D02*
X149387547Y-100261562D01*
X167091547Y-63271371D02*
X167091547Y-61290000D01*
X149387547Y-100666492D02*
X149288361Y-100765678D01*
X149387547Y-100261562D02*
X149387547Y-100666492D01*
X168222918Y-63740000D02*
X167560176Y-63740000D01*
%TO.N,/A20*%
X168691547Y-57150000D02*
X169961547Y-55880000D01*
X167891547Y-62940000D02*
X168691547Y-62140000D01*
X168691547Y-62140000D02*
X168691547Y-57150000D01*
%TO.N,/~{RD}*%
X161698205Y-111013342D02*
X162221547Y-110490000D01*
X164881547Y-110490000D02*
X166151547Y-111760000D01*
X161698205Y-111290000D02*
X161698205Y-111013342D01*
X162221547Y-110490000D02*
X164881547Y-110490000D01*
%TD*%
%TA.AperFunction,Conductor*%
%TO.N,GND*%
G36*
X142190622Y-81722007D02*
G01*
X142156547Y-81849174D01*
X142156547Y-81980826D01*
X142190622Y-82107993D01*
X142223535Y-82165000D01*
X140549559Y-82165000D01*
X140582472Y-82107993D01*
X140616547Y-81980826D01*
X140616547Y-81849174D01*
X140582472Y-81722007D01*
X140549559Y-81665000D01*
X142223535Y-81665000D01*
X142190622Y-81722007D01*
G37*
%TD.AperFunction*%
%TA.AperFunction,Conductor*%
G36*
X142906547Y-81481988D02*
G01*
X142849540Y-81449075D01*
X142722373Y-81415000D01*
X142590721Y-81415000D01*
X142463554Y-81449075D01*
X142406547Y-81481988D01*
X142406547Y-79808012D01*
X142463554Y-79840925D01*
X142590721Y-79875000D01*
X142722373Y-79875000D01*
X142849540Y-79840925D01*
X142906547Y-79808012D01*
X142906547Y-81481988D01*
G37*
%TD.AperFunction*%
%TA.AperFunction,Conductor*%
G36*
X173214086Y-48780185D02*
G01*
X173259841Y-48832989D01*
X173271047Y-48884500D01*
X173271047Y-114310500D01*
X173251362Y-114377539D01*
X173198558Y-114423294D01*
X173147047Y-114434500D01*
X133756047Y-114434500D01*
X133689008Y-114414815D01*
X133643253Y-114362011D01*
X133632047Y-114310500D01*
X133632047Y-112068140D01*
X152883065Y-112068140D01*
X152887309Y-112111231D01*
X152887906Y-112123385D01*
X152887906Y-112166685D01*
X152896351Y-112209147D01*
X152898136Y-112221176D01*
X152902381Y-112264271D01*
X152902382Y-112264275D01*
X152914953Y-112305716D01*
X152917909Y-112317519D01*
X152926352Y-112359968D01*
X152926354Y-112359975D01*
X152942923Y-112399975D01*
X152947018Y-112411418D01*
X152957461Y-112445842D01*
X152959593Y-112452870D01*
X152980003Y-112491054D01*
X152985206Y-112502056D01*
X153001774Y-112542055D01*
X153001776Y-112542059D01*
X153025831Y-112578059D01*
X153032089Y-112588499D01*
X153052494Y-112626676D01*
X153052500Y-112626684D01*
X153079958Y-112660143D01*
X153087205Y-112669913D01*
X153111264Y-112705919D01*
X153111268Y-112705924D01*
X153111271Y-112705928D01*
X153141885Y-112736542D01*
X153150057Y-112745557D01*
X153177523Y-112779024D01*
X153201248Y-112798495D01*
X153210987Y-112806487D01*
X153220005Y-112814661D01*
X153250620Y-112845277D01*
X153250625Y-112845281D01*
X153286625Y-112869335D01*
X153296394Y-112876579D01*
X153329868Y-112904051D01*
X153329870Y-112904052D01*
X153368046Y-112924457D01*
X153378484Y-112930713D01*
X153383456Y-112934035D01*
X153414492Y-112954773D01*
X153454501Y-112971344D01*
X153465497Y-112976545D01*
X153503679Y-112996955D01*
X153545116Y-113009524D01*
X153556566Y-113013621D01*
X153596571Y-113030192D01*
X153639046Y-113038640D01*
X153650820Y-113041589D01*
X153692274Y-113054165D01*
X153735370Y-113058409D01*
X153747396Y-113060193D01*
X153777886Y-113066258D01*
X153789864Y-113068641D01*
X153789865Y-113068641D01*
X153833162Y-113068641D01*
X153845315Y-113069237D01*
X153888406Y-113073482D01*
X153931496Y-113069237D01*
X153943650Y-113068641D01*
X154886948Y-113068641D01*
X154906276Y-113064796D01*
X154983594Y-113049416D01*
X155080242Y-113030192D01*
X155133571Y-113008102D01*
X155262320Y-112954773D01*
X155426188Y-112845280D01*
X155565545Y-112705923D01*
X155565546Y-112705920D01*
X155572612Y-112698855D01*
X155572615Y-112698851D01*
X156594325Y-111677141D01*
X156594329Y-111677139D01*
X156733686Y-111537782D01*
X156843179Y-111373914D01*
X156877937Y-111290000D01*
X160692864Y-111290000D01*
X160712180Y-111486129D01*
X160712181Y-111486132D01*
X160744971Y-111594227D01*
X160769393Y-111674733D01*
X160862291Y-111848532D01*
X160862295Y-111848539D01*
X160987321Y-112000883D01*
X161139665Y-112125909D01*
X161139672Y-112125913D01*
X161313471Y-112218811D01*
X161313474Y-112218811D01*
X161313478Y-112218814D01*
X161502073Y-112276024D01*
X161698205Y-112295341D01*
X161894337Y-112276024D01*
X162082932Y-112218814D01*
X162169523Y-112172529D01*
X162237925Y-112158288D01*
X162303169Y-112183288D01*
X162340358Y-112229483D01*
X162437512Y-112437830D01*
X162437514Y-112437834D01*
X162510491Y-112542055D01*
X162573052Y-112631401D01*
X162740146Y-112798495D01*
X162806958Y-112845277D01*
X162933712Y-112934032D01*
X162933714Y-112934033D01*
X162933717Y-112934035D01*
X163147884Y-113033903D01*
X163376139Y-113095063D01*
X163564465Y-113111539D01*
X163611546Y-113115659D01*
X163611547Y-113115659D01*
X163611548Y-113115659D01*
X163650781Y-113112226D01*
X163846955Y-113095063D01*
X164075210Y-113033903D01*
X164289377Y-112934035D01*
X164482948Y-112798495D01*
X164650042Y-112631401D01*
X164779972Y-112445842D01*
X164834549Y-112402217D01*
X164904047Y-112395023D01*
X164966402Y-112426546D01*
X164983122Y-112445842D01*
X165113047Y-112631395D01*
X165113052Y-112631401D01*
X165280146Y-112798495D01*
X165346958Y-112845277D01*
X165473712Y-112934032D01*
X165473714Y-112934033D01*
X165473717Y-112934035D01*
X165687884Y-113033903D01*
X165916139Y-113095063D01*
X166104465Y-113111539D01*
X166151546Y-113115659D01*
X166151547Y-113115659D01*
X166151548Y-113115659D01*
X166190781Y-113112226D01*
X166386955Y-113095063D01*
X166615210Y-113033903D01*
X166829377Y-112934035D01*
X167022948Y-112798495D01*
X167190042Y-112631401D01*
X167325582Y-112437830D01*
X167425450Y-112223663D01*
X167486610Y-111995408D01*
X167507206Y-111760000D01*
X167505132Y-111736300D01*
X167486610Y-111524596D01*
X167486610Y-111524592D01*
X167425450Y-111296337D01*
X167325582Y-111082171D01*
X167325545Y-111082117D01*
X167190041Y-110888597D01*
X167022949Y-110721506D01*
X167022943Y-110721501D01*
X166837389Y-110591575D01*
X166793764Y-110536998D01*
X166786570Y-110467500D01*
X166818093Y-110405145D01*
X166837389Y-110388425D01*
X166966773Y-110297829D01*
X167022948Y-110258495D01*
X167190042Y-110091401D01*
X167325582Y-109897830D01*
X167425450Y-109683663D01*
X167486610Y-109455408D01*
X167507206Y-109220000D01*
X167486610Y-108984592D01*
X167429523Y-108771538D01*
X167425452Y-108756344D01*
X167425451Y-108756343D01*
X167425450Y-108756337D01*
X167325582Y-108542171D01*
X167319972Y-108534158D01*
X167190041Y-108348597D01*
X167022949Y-108181506D01*
X167022943Y-108181501D01*
X166837389Y-108051575D01*
X166793764Y-107996998D01*
X166786570Y-107927500D01*
X166818093Y-107865145D01*
X166837389Y-107848425D01*
X166887230Y-107813526D01*
X167022948Y-107718495D01*
X167190042Y-107551401D01*
X167325582Y-107357830D01*
X167425450Y-107143663D01*
X167486610Y-106915408D01*
X167507206Y-106680000D01*
X167486610Y-106444592D01*
X167425450Y-106216337D01*
X167325582Y-106002171D01*
X167319972Y-105994158D01*
X167190041Y-105808597D01*
X167022949Y-105641506D01*
X167022943Y-105641501D01*
X166837389Y-105511575D01*
X166793764Y-105456998D01*
X166786570Y-105387500D01*
X166818093Y-105325145D01*
X166837389Y-105308425D01*
X166905971Y-105260403D01*
X167022948Y-105178495D01*
X167190042Y-105011401D01*
X167325582Y-104817830D01*
X167425450Y-104603663D01*
X167486610Y-104375408D01*
X167507206Y-104140000D01*
X167506294Y-104129581D01*
X167493777Y-103986506D01*
X167486610Y-103904592D01*
X167425450Y-103676337D01*
X167325582Y-103462171D01*
X167319972Y-103454158D01*
X167190041Y-103268597D01*
X167022949Y-103101506D01*
X167022943Y-103101501D01*
X166837389Y-102971575D01*
X166793764Y-102916998D01*
X166786570Y-102847500D01*
X166818093Y-102785145D01*
X166837389Y-102768425D01*
X166975336Y-102671833D01*
X167022948Y-102638495D01*
X167190042Y-102471401D01*
X167325582Y-102277830D01*
X167425450Y-102063663D01*
X167486610Y-101835408D01*
X167507206Y-101600000D01*
X167486610Y-101364592D01*
X167429221Y-101150411D01*
X167425452Y-101136344D01*
X167425451Y-101136343D01*
X167425450Y-101136337D01*
X167325582Y-100922171D01*
X167319972Y-100914158D01*
X167190041Y-100728597D01*
X167022949Y-100561506D01*
X167022943Y-100561501D01*
X166837389Y-100431575D01*
X166793764Y-100376998D01*
X166786570Y-100307500D01*
X166818093Y-100245145D01*
X166837389Y-100228425D01*
X166875705Y-100201596D01*
X167022948Y-100098495D01*
X167190042Y-99931401D01*
X167325582Y-99737830D01*
X167425450Y-99523663D01*
X167486610Y-99295408D01*
X167507206Y-99060000D01*
X167486610Y-98824592D01*
X167425450Y-98596337D01*
X167325582Y-98382171D01*
X167322464Y-98377717D01*
X167190041Y-98188597D01*
X167022949Y-98021506D01*
X167022943Y-98021501D01*
X166837389Y-97891575D01*
X166793764Y-97836998D01*
X166786570Y-97767500D01*
X166818093Y-97705145D01*
X166837389Y-97688425D01*
X166973678Y-97592994D01*
X167022948Y-97558495D01*
X167190042Y-97391401D01*
X167325582Y-97197830D01*
X167425450Y-96983663D01*
X167486610Y-96755408D01*
X167507206Y-96520000D01*
X167486610Y-96284592D01*
X167425450Y-96056337D01*
X167325582Y-95842171D01*
X167319972Y-95834158D01*
X167190041Y-95648597D01*
X167022949Y-95481506D01*
X167022943Y-95481501D01*
X166837389Y-95351575D01*
X166793764Y-95296998D01*
X166786570Y-95227500D01*
X166818093Y-95165145D01*
X166837389Y-95148425D01*
X166859573Y-95132891D01*
X167022948Y-95018495D01*
X167190042Y-94851401D01*
X167325582Y-94657830D01*
X167425450Y-94443663D01*
X167486610Y-94215408D01*
X167507206Y-93980000D01*
X167486610Y-93744592D01*
X167425450Y-93516337D01*
X167325582Y-93302171D01*
X167320855Y-93295419D01*
X167190041Y-93108597D01*
X167022949Y-92941506D01*
X167022943Y-92941501D01*
X166837389Y-92811575D01*
X166793764Y-92756998D01*
X166786570Y-92687500D01*
X166818093Y-92625145D01*
X166837389Y-92608425D01*
X166859573Y-92592891D01*
X167022948Y-92478495D01*
X167190042Y-92311401D01*
X167325582Y-92117830D01*
X167425450Y-91903663D01*
X167486610Y-91675408D01*
X167507206Y-91440000D01*
X167486610Y-91204592D01*
X167425450Y-90976337D01*
X167325582Y-90762171D01*
X167319972Y-90754158D01*
X167190041Y-90568597D01*
X167022949Y-90401506D01*
X167022943Y-90401501D01*
X166837389Y-90271575D01*
X166793764Y-90216998D01*
X166786570Y-90147500D01*
X166818093Y-90085145D01*
X166837389Y-90068425D01*
X166859573Y-90052891D01*
X167022948Y-89938495D01*
X167190042Y-89771401D01*
X167325582Y-89577830D01*
X167425450Y-89363663D01*
X167486610Y-89135408D01*
X167507206Y-88900000D01*
X167486610Y-88664592D01*
X167425450Y-88436337D01*
X167325582Y-88222171D01*
X167319972Y-88214158D01*
X167190041Y-88028597D01*
X167022949Y-87861506D01*
X167022943Y-87861501D01*
X166837389Y-87731575D01*
X166793764Y-87676998D01*
X166786570Y-87607500D01*
X166818093Y-87545145D01*
X166837389Y-87528425D01*
X166859573Y-87512891D01*
X167022948Y-87398495D01*
X167190042Y-87231401D01*
X167325582Y-87037830D01*
X167425450Y-86823663D01*
X167486610Y-86595408D01*
X167507206Y-86360000D01*
X167486610Y-86124592D01*
X167425450Y-85896337D01*
X167325582Y-85682171D01*
X167322891Y-85678327D01*
X167190041Y-85488597D01*
X167022949Y-85321506D01*
X167022943Y-85321501D01*
X166837389Y-85191575D01*
X166793764Y-85136998D01*
X166786570Y-85067500D01*
X166818093Y-85005145D01*
X166837389Y-84988425D01*
X166982907Y-84886532D01*
X167022948Y-84858495D01*
X167190042Y-84691401D01*
X167325582Y-84497830D01*
X167425450Y-84283663D01*
X167486610Y-84055408D01*
X167507206Y-83820000D01*
X167486610Y-83584592D01*
X167425450Y-83356337D01*
X167325582Y-83142171D01*
X167319972Y-83134158D01*
X167190041Y-82948597D01*
X167022949Y-82781506D01*
X167022943Y-82781501D01*
X166837389Y-82651575D01*
X166793764Y-82596998D01*
X166786570Y-82527500D01*
X166818093Y-82465145D01*
X166837389Y-82448425D01*
X166925067Y-82387032D01*
X167022948Y-82318495D01*
X167190042Y-82151401D01*
X167325582Y-81957830D01*
X167425450Y-81743663D01*
X167486610Y-81515408D01*
X167507206Y-81280000D01*
X167486610Y-81044592D01*
X167425450Y-80816337D01*
X167325582Y-80602171D01*
X167319972Y-80594158D01*
X167190041Y-80408597D01*
X167022949Y-80241506D01*
X167022943Y-80241501D01*
X166837389Y-80111575D01*
X166793764Y-80056998D01*
X166786570Y-79987500D01*
X166818093Y-79925145D01*
X166837389Y-79908425D01*
X166925067Y-79847032D01*
X167022948Y-79778495D01*
X167190042Y-79611401D01*
X167325582Y-79417830D01*
X167425450Y-79203663D01*
X167486610Y-78975408D01*
X167507206Y-78740000D01*
X167486610Y-78504592D01*
X167425450Y-78276337D01*
X167325582Y-78062171D01*
X167313114Y-78044364D01*
X167190041Y-77868597D01*
X167022949Y-77701506D01*
X167022942Y-77701501D01*
X166829381Y-77565967D01*
X166829377Y-77565965D01*
X166829375Y-77565964D01*
X166615210Y-77466097D01*
X166615206Y-77466096D01*
X166615202Y-77466094D01*
X166386960Y-77404938D01*
X166386950Y-77404936D01*
X166151548Y-77384341D01*
X166151546Y-77384341D01*
X165916143Y-77404936D01*
X165916133Y-77404938D01*
X165687891Y-77466094D01*
X165687882Y-77466098D01*
X165473718Y-77565964D01*
X165473716Y-77565965D01*
X165280147Y-77701503D01*
X165158220Y-77823430D01*
X165096897Y-77856914D01*
X165027205Y-77851930D01*
X164971272Y-77810058D01*
X164954357Y-77779081D01*
X164905344Y-77647671D01*
X164905340Y-77647664D01*
X164819094Y-77532455D01*
X164819091Y-77532452D01*
X164703882Y-77446206D01*
X164703875Y-77446202D01*
X164569029Y-77395908D01*
X164569030Y-77395908D01*
X164509430Y-77389501D01*
X164509428Y-77389500D01*
X164509420Y-77389500D01*
X164509411Y-77389500D01*
X162713676Y-77389500D01*
X162713670Y-77389501D01*
X162654063Y-77395908D01*
X162519218Y-77446202D01*
X162519211Y-77446206D01*
X162404002Y-77532452D01*
X162403999Y-77532455D01*
X162317753Y-77647664D01*
X162317749Y-77647671D01*
X162267455Y-77782517D01*
X162261048Y-77842116D01*
X162261047Y-77842135D01*
X162261047Y-79637870D01*
X162261048Y-79637876D01*
X162267455Y-79697483D01*
X162317749Y-79832328D01*
X162317753Y-79832335D01*
X162403999Y-79947544D01*
X162404002Y-79947547D01*
X162519211Y-80033793D01*
X162519218Y-80033797D01*
X162650628Y-80082810D01*
X162706562Y-80124681D01*
X162730979Y-80190145D01*
X162716127Y-80258418D01*
X162694977Y-80286673D01*
X162573050Y-80408600D01*
X162437512Y-80602169D01*
X162437511Y-80602171D01*
X162337645Y-80816335D01*
X162337641Y-80816344D01*
X162276485Y-81044586D01*
X162276483Y-81044596D01*
X162255888Y-81279999D01*
X162255888Y-81280000D01*
X162276483Y-81515403D01*
X162276485Y-81515413D01*
X162337641Y-81743655D01*
X162337643Y-81743659D01*
X162337644Y-81743663D01*
X162341547Y-81752032D01*
X162437512Y-81957830D01*
X162437514Y-81957834D01*
X162542657Y-82107993D01*
X162573048Y-82151396D01*
X162573053Y-82151402D01*
X162740144Y-82318493D01*
X162740150Y-82318498D01*
X162925705Y-82448425D01*
X162969330Y-82503002D01*
X162976524Y-82572500D01*
X162945001Y-82634855D01*
X162925705Y-82651575D01*
X162740144Y-82781505D01*
X162573052Y-82948597D01*
X162437512Y-83142169D01*
X162437511Y-83142171D01*
X162337645Y-83356335D01*
X162337641Y-83356344D01*
X162276485Y-83584586D01*
X162276483Y-83584596D01*
X162255888Y-83819999D01*
X162255888Y-83820000D01*
X162276483Y-84055403D01*
X162276485Y-84055413D01*
X162337641Y-84283655D01*
X162337643Y-84283659D01*
X162337644Y-84283663D01*
X162426725Y-84474697D01*
X162437512Y-84497830D01*
X162437514Y-84497834D01*
X162501457Y-84589153D01*
X162573048Y-84691396D01*
X162573053Y-84691402D01*
X162740144Y-84858493D01*
X162740150Y-84858498D01*
X162925705Y-84988425D01*
X162969330Y-85043002D01*
X162976524Y-85112500D01*
X162945001Y-85174855D01*
X162925705Y-85191575D01*
X162740144Y-85321505D01*
X162573052Y-85488597D01*
X162437512Y-85682169D01*
X162437511Y-85682171D01*
X162337645Y-85896335D01*
X162337641Y-85896344D01*
X162276485Y-86124586D01*
X162276483Y-86124596D01*
X162255888Y-86359999D01*
X162255888Y-86360000D01*
X162276483Y-86595403D01*
X162276485Y-86595413D01*
X162337641Y-86823655D01*
X162337643Y-86823659D01*
X162337644Y-86823663D01*
X162341547Y-86832032D01*
X162437512Y-87037830D01*
X162437514Y-87037834D01*
X162545828Y-87192521D01*
X162573048Y-87231396D01*
X162573053Y-87231402D01*
X162740144Y-87398493D01*
X162740150Y-87398498D01*
X162925705Y-87528425D01*
X162969330Y-87583002D01*
X162976524Y-87652500D01*
X162945001Y-87714855D01*
X162925705Y-87731575D01*
X162740144Y-87861505D01*
X162573052Y-88028597D01*
X162437512Y-88222169D01*
X162437511Y-88222171D01*
X162337645Y-88436335D01*
X162337641Y-88436344D01*
X162276485Y-88664586D01*
X162276483Y-88664596D01*
X162255888Y-88899999D01*
X162255888Y-88900000D01*
X162276483Y-89135403D01*
X162276485Y-89135413D01*
X162337641Y-89363655D01*
X162337643Y-89363659D01*
X162337644Y-89363663D01*
X162341547Y-89372032D01*
X162437512Y-89577830D01*
X162437514Y-89577834D01*
X162545828Y-89732521D01*
X162573048Y-89771396D01*
X162573053Y-89771402D01*
X162740144Y-89938493D01*
X162740150Y-89938498D01*
X162925705Y-90068425D01*
X162969330Y-90123002D01*
X162976524Y-90192500D01*
X162945001Y-90254855D01*
X162925705Y-90271575D01*
X162740144Y-90401505D01*
X162573052Y-90568597D01*
X162437512Y-90762169D01*
X162437511Y-90762171D01*
X162337645Y-90976335D01*
X162337641Y-90976344D01*
X162276485Y-91204586D01*
X162276483Y-91204596D01*
X162255888Y-91439999D01*
X162255888Y-91440000D01*
X162276483Y-91675403D01*
X162276485Y-91675413D01*
X162337641Y-91903655D01*
X162337643Y-91903659D01*
X162337644Y-91903663D01*
X162341547Y-91912032D01*
X162437512Y-92117830D01*
X162437514Y-92117834D01*
X162545828Y-92272521D01*
X162573048Y-92311396D01*
X162573053Y-92311402D01*
X162740144Y-92478493D01*
X162740150Y-92478498D01*
X162925705Y-92608425D01*
X162969330Y-92663002D01*
X162976524Y-92732500D01*
X162945001Y-92794855D01*
X162925705Y-92811575D01*
X162740144Y-92941505D01*
X162573052Y-93108597D01*
X162437512Y-93302169D01*
X162437511Y-93302171D01*
X162337645Y-93516335D01*
X162337641Y-93516344D01*
X162276485Y-93744586D01*
X162276483Y-93744596D01*
X162255888Y-93979999D01*
X162255888Y-93980000D01*
X162276483Y-94215403D01*
X162276485Y-94215413D01*
X162337641Y-94443655D01*
X162337643Y-94443659D01*
X162337644Y-94443663D01*
X162341547Y-94452032D01*
X162437512Y-94657830D01*
X162437514Y-94657834D01*
X162545828Y-94812521D01*
X162573048Y-94851396D01*
X162573053Y-94851402D01*
X162740144Y-95018493D01*
X162740150Y-95018498D01*
X162925705Y-95148425D01*
X162969330Y-95203002D01*
X162976524Y-95272500D01*
X162945001Y-95334855D01*
X162925705Y-95351575D01*
X162740144Y-95481505D01*
X162573052Y-95648597D01*
X162437512Y-95842169D01*
X162437511Y-95842171D01*
X162337645Y-96056335D01*
X162337641Y-96056344D01*
X162276485Y-96284586D01*
X162276483Y-96284596D01*
X162255888Y-96519999D01*
X162255888Y-96520000D01*
X162276483Y-96755403D01*
X162276485Y-96755413D01*
X162337641Y-96983655D01*
X162337643Y-96983659D01*
X162337644Y-96983663D01*
X162370425Y-97053961D01*
X162437512Y-97197830D01*
X162437514Y-97197834D01*
X162515689Y-97309478D01*
X162573048Y-97391396D01*
X162573053Y-97391402D01*
X162740144Y-97558493D01*
X162740150Y-97558498D01*
X162925705Y-97688425D01*
X162969330Y-97743002D01*
X162976524Y-97812500D01*
X162945001Y-97874855D01*
X162925705Y-97891575D01*
X162740144Y-98021505D01*
X162573052Y-98188597D01*
X162437512Y-98382169D01*
X162437511Y-98382171D01*
X162337645Y-98596335D01*
X162337641Y-98596344D01*
X162276485Y-98824586D01*
X162276483Y-98824596D01*
X162255888Y-99059999D01*
X162255888Y-99060000D01*
X162276483Y-99295403D01*
X162276485Y-99295413D01*
X162337641Y-99523655D01*
X162337643Y-99523659D01*
X162337644Y-99523663D01*
X162374757Y-99603252D01*
X162437512Y-99737830D01*
X162437514Y-99737834D01*
X162506856Y-99836864D01*
X162573048Y-99931396D01*
X162573053Y-99931402D01*
X162740144Y-100098493D01*
X162740150Y-100098498D01*
X162925705Y-100228425D01*
X162969330Y-100283002D01*
X162976524Y-100352500D01*
X162945001Y-100414855D01*
X162925705Y-100431575D01*
X162740144Y-100561505D01*
X162573052Y-100728597D01*
X162437512Y-100922169D01*
X162437511Y-100922171D01*
X162337645Y-101136335D01*
X162337641Y-101136344D01*
X162276485Y-101364586D01*
X162276483Y-101364596D01*
X162255888Y-101599999D01*
X162255888Y-101600000D01*
X162276483Y-101835403D01*
X162276485Y-101835413D01*
X162337641Y-102063655D01*
X162337643Y-102063659D01*
X162337644Y-102063663D01*
X162398975Y-102195188D01*
X162437512Y-102277830D01*
X162437514Y-102277834D01*
X162519726Y-102395244D01*
X162573048Y-102471396D01*
X162573053Y-102471402D01*
X162740144Y-102638493D01*
X162740150Y-102638498D01*
X162925705Y-102768425D01*
X162969330Y-102823002D01*
X162976524Y-102892500D01*
X162945001Y-102954855D01*
X162925705Y-102971575D01*
X162740144Y-103101505D01*
X162573052Y-103268597D01*
X162437512Y-103462169D01*
X162437511Y-103462171D01*
X162337645Y-103676335D01*
X162337641Y-103676344D01*
X162276485Y-103904586D01*
X162276483Y-103904596D01*
X162255888Y-104139999D01*
X162255888Y-104140000D01*
X162276483Y-104375403D01*
X162276485Y-104375413D01*
X162337641Y-104603655D01*
X162337643Y-104603659D01*
X162337644Y-104603663D01*
X162341547Y-104612032D01*
X162437512Y-104817830D01*
X162437514Y-104817834D01*
X162545828Y-104972521D01*
X162573048Y-105011396D01*
X162573053Y-105011402D01*
X162740144Y-105178493D01*
X162740150Y-105178498D01*
X162925705Y-105308425D01*
X162969330Y-105363002D01*
X162976524Y-105432500D01*
X162945001Y-105494855D01*
X162925705Y-105511575D01*
X162740144Y-105641505D01*
X162573052Y-105808597D01*
X162437512Y-106002169D01*
X162437511Y-106002171D01*
X162337645Y-106216335D01*
X162337641Y-106216344D01*
X162276485Y-106444586D01*
X162276483Y-106444596D01*
X162255888Y-106679999D01*
X162255888Y-106680000D01*
X162276483Y-106915403D01*
X162276485Y-106915413D01*
X162337641Y-107143655D01*
X162337643Y-107143659D01*
X162337644Y-107143663D01*
X162341547Y-107152032D01*
X162437512Y-107357830D01*
X162437514Y-107357834D01*
X162538542Y-107502116D01*
X162573048Y-107551396D01*
X162573053Y-107551402D01*
X162740144Y-107718493D01*
X162740150Y-107718498D01*
X162925705Y-107848425D01*
X162969330Y-107903002D01*
X162976524Y-107972500D01*
X162945001Y-108034855D01*
X162925705Y-108051575D01*
X162740144Y-108181505D01*
X162573052Y-108348597D01*
X162437512Y-108542169D01*
X162437511Y-108542171D01*
X162337645Y-108756335D01*
X162337641Y-108756344D01*
X162276485Y-108984586D01*
X162276483Y-108984596D01*
X162255888Y-109219999D01*
X162255888Y-109220000D01*
X162276483Y-109455403D01*
X162276485Y-109455413D01*
X162337641Y-109683655D01*
X162337642Y-109683658D01*
X162337644Y-109683663D01*
X162351369Y-109713097D01*
X162361861Y-109782171D01*
X162333342Y-109845956D01*
X162274866Y-109884196D01*
X162238987Y-109889500D01*
X162142486Y-109889500D01*
X162111400Y-109897829D01*
X162111401Y-109897830D01*
X161989761Y-109930423D01*
X161989756Y-109930426D01*
X161852837Y-110009475D01*
X161852829Y-110009481D01*
X161773194Y-110089117D01*
X161741027Y-110121284D01*
X161741025Y-110121286D01*
X161664092Y-110198219D01*
X161595855Y-110266456D01*
X161534532Y-110299940D01*
X161520333Y-110302176D01*
X161502079Y-110303974D01*
X161313471Y-110361188D01*
X161139672Y-110454086D01*
X161139665Y-110454090D01*
X160987321Y-110579116D01*
X160862295Y-110731460D01*
X160862291Y-110731467D01*
X160769393Y-110905266D01*
X160712180Y-111093870D01*
X160692864Y-111290000D01*
X156877937Y-111290000D01*
X156918598Y-111191835D01*
X156937334Y-111097643D01*
X156957047Y-110998543D01*
X156957047Y-110855244D01*
X156957644Y-110843090D01*
X156961888Y-110800000D01*
X156957644Y-110756908D01*
X156957047Y-110744754D01*
X156957047Y-110701458D01*
X156954664Y-110689480D01*
X156948599Y-110658990D01*
X156946815Y-110646961D01*
X156942571Y-110603869D01*
X156942571Y-110603868D01*
X156929995Y-110562414D01*
X156927046Y-110550640D01*
X156918598Y-110508165D01*
X156902027Y-110468160D01*
X156897929Y-110456706D01*
X156885361Y-110415273D01*
X156864950Y-110377088D01*
X156859748Y-110366090D01*
X156857717Y-110361186D01*
X156843179Y-110326086D01*
X156819119Y-110290078D01*
X156812863Y-110279640D01*
X156792458Y-110241464D01*
X156792457Y-110241462D01*
X156764985Y-110207988D01*
X156757741Y-110198219D01*
X156733687Y-110162219D01*
X156733683Y-110162214D01*
X156703067Y-110131599D01*
X156694893Y-110122581D01*
X156667431Y-110089118D01*
X156633963Y-110061651D01*
X156624948Y-110053479D01*
X156594334Y-110022865D01*
X156594330Y-110022862D01*
X156594327Y-110022860D01*
X156568108Y-110005340D01*
X156558319Y-109998799D01*
X156548549Y-109991552D01*
X156515090Y-109964094D01*
X156515082Y-109964088D01*
X156497983Y-109954948D01*
X156476897Y-109943678D01*
X156466465Y-109937425D01*
X156430465Y-109913370D01*
X156430461Y-109913368D01*
X156390462Y-109896800D01*
X156379460Y-109891597D01*
X156341276Y-109871187D01*
X156341275Y-109871186D01*
X156341274Y-109871186D01*
X156299824Y-109858612D01*
X156288381Y-109854517D01*
X156248381Y-109837948D01*
X156248374Y-109837946D01*
X156205925Y-109829503D01*
X156194122Y-109826547D01*
X156152681Y-109813976D01*
X156152677Y-109813975D01*
X156109582Y-109809730D01*
X156097553Y-109807945D01*
X156055091Y-109799500D01*
X156055088Y-109799500D01*
X156011791Y-109799500D01*
X155999637Y-109798903D01*
X155956547Y-109794659D01*
X155913457Y-109798903D01*
X155901303Y-109799500D01*
X155858000Y-109799500D01*
X155815538Y-109807945D01*
X155803510Y-109809730D01*
X155760414Y-109813976D01*
X155718974Y-109826546D01*
X155707173Y-109829502D01*
X155664713Y-109837948D01*
X155664708Y-109837949D01*
X155624706Y-109854518D01*
X155613254Y-109858616D01*
X155571819Y-109871186D01*
X155533638Y-109891594D01*
X155522640Y-109896795D01*
X155482638Y-109913364D01*
X155446627Y-109937426D01*
X155436192Y-109943680D01*
X155398012Y-109964087D01*
X155398007Y-109964091D01*
X155364537Y-109991557D01*
X155354772Y-109998799D01*
X155318772Y-110022855D01*
X155318766Y-110022860D01*
X155288142Y-110053483D01*
X155279131Y-110061650D01*
X155245664Y-110089117D01*
X155218197Y-110122584D01*
X155210030Y-110131595D01*
X155179407Y-110162219D01*
X155179402Y-110162225D01*
X155155346Y-110198225D01*
X155148104Y-110207990D01*
X155120638Y-110241460D01*
X155120634Y-110241465D01*
X155100227Y-110279645D01*
X155093973Y-110290080D01*
X155069912Y-110326089D01*
X155053344Y-110366089D01*
X155048142Y-110377088D01*
X155037985Y-110396090D01*
X155016308Y-110425317D01*
X154410305Y-111031322D01*
X154348982Y-111064807D01*
X154322624Y-111067641D01*
X153943650Y-111067641D01*
X153931496Y-111067044D01*
X153908783Y-111064807D01*
X153888406Y-111062800D01*
X153868029Y-111064807D01*
X153845316Y-111067044D01*
X153833162Y-111067641D01*
X153789859Y-111067641D01*
X153747397Y-111076086D01*
X153735369Y-111077871D01*
X153692273Y-111082117D01*
X153650833Y-111094687D01*
X153639032Y-111097643D01*
X153596572Y-111106089D01*
X153596567Y-111106090D01*
X153556565Y-111122659D01*
X153545113Y-111126757D01*
X153503678Y-111139327D01*
X153465497Y-111159735D01*
X153454499Y-111164936D01*
X153414497Y-111181505D01*
X153378486Y-111205567D01*
X153368051Y-111211821D01*
X153329871Y-111232228D01*
X153329866Y-111232232D01*
X153296396Y-111259698D01*
X153286631Y-111266940D01*
X153250631Y-111290996D01*
X153250625Y-111291001D01*
X153220001Y-111321624D01*
X153210990Y-111329791D01*
X153177523Y-111357258D01*
X153150056Y-111390725D01*
X153141889Y-111399736D01*
X153111266Y-111430360D01*
X153111261Y-111430366D01*
X153087205Y-111466366D01*
X153079963Y-111476131D01*
X153052497Y-111509601D01*
X153052493Y-111509606D01*
X153032086Y-111547786D01*
X153025832Y-111558221D01*
X153001770Y-111594232D01*
X152985201Y-111634234D01*
X152980000Y-111645232D01*
X152959592Y-111683413D01*
X152947022Y-111724848D01*
X152942924Y-111736300D01*
X152926355Y-111776302D01*
X152926354Y-111776307D01*
X152917908Y-111818767D01*
X152914952Y-111830568D01*
X152902382Y-111872008D01*
X152898136Y-111915104D01*
X152896351Y-111927132D01*
X152887906Y-111969594D01*
X152887906Y-112012895D01*
X152887309Y-112025048D01*
X152883065Y-112068140D01*
X133632047Y-112068140D01*
X133632047Y-105024999D01*
X138980888Y-105024999D01*
X138980888Y-105025000D01*
X139001483Y-105260403D01*
X139001485Y-105260413D01*
X139062641Y-105488655D01*
X139062643Y-105488659D01*
X139062644Y-105488663D01*
X139133914Y-105641501D01*
X139162512Y-105702830D01*
X139162514Y-105702834D01*
X139236571Y-105808597D01*
X139298048Y-105896396D01*
X139298053Y-105896402D01*
X139465144Y-106063493D01*
X139465150Y-106063498D01*
X139650705Y-106193425D01*
X139694330Y-106248002D01*
X139701524Y-106317500D01*
X139670001Y-106379855D01*
X139650705Y-106396575D01*
X139465144Y-106526505D01*
X139298052Y-106693597D01*
X139162512Y-106887169D01*
X139162511Y-106887171D01*
X139062645Y-107101335D01*
X139062641Y-107101344D01*
X139001485Y-107329586D01*
X139001483Y-107329596D01*
X138980888Y-107564999D01*
X138980888Y-107565000D01*
X139001483Y-107800403D01*
X139001485Y-107800413D01*
X139062641Y-108028655D01*
X139062643Y-108028659D01*
X139062644Y-108028663D01*
X139140218Y-108195020D01*
X139162512Y-108242830D01*
X139162514Y-108242834D01*
X139236571Y-108348597D01*
X139298052Y-108436401D01*
X139465146Y-108603495D01*
X139561931Y-108671265D01*
X139658712Y-108739032D01*
X139658714Y-108739033D01*
X139658717Y-108739035D01*
X139872884Y-108838903D01*
X140101139Y-108900063D01*
X140336547Y-108920659D01*
X140336549Y-108920658D01*
X140341810Y-108921119D01*
X140406879Y-108946571D01*
X140447858Y-109003162D01*
X140454406Y-109032493D01*
X140470522Y-109196129D01*
X140527735Y-109384733D01*
X140620633Y-109558532D01*
X140620637Y-109558539D01*
X140745663Y-109710883D01*
X140898007Y-109835909D01*
X140898014Y-109835913D01*
X141071813Y-109928811D01*
X141071816Y-109928811D01*
X141071820Y-109928814D01*
X141260415Y-109986024D01*
X141456547Y-110005341D01*
X141652679Y-109986024D01*
X141841274Y-109928814D01*
X141870172Y-109913368D01*
X141996290Y-109845956D01*
X142015085Y-109835910D01*
X142167430Y-109710883D01*
X142189772Y-109683659D01*
X142220814Y-109645835D01*
X142278559Y-109606501D01*
X142316667Y-109600500D01*
X143061841Y-109600500D01*
X143128880Y-109620185D01*
X143171199Y-109666047D01*
X143220633Y-109758532D01*
X143220637Y-109758539D01*
X143345663Y-109910883D01*
X143498007Y-110035909D01*
X143498014Y-110035913D01*
X143671813Y-110128811D01*
X143671816Y-110128811D01*
X143671820Y-110128814D01*
X143860415Y-110186024D01*
X144056547Y-110205341D01*
X144252679Y-110186024D01*
X144441274Y-110128814D01*
X144452930Y-110122584D01*
X144615079Y-110035913D01*
X144615085Y-110035910D01*
X144767430Y-109910883D01*
X144784979Y-109889500D01*
X144820814Y-109845835D01*
X144878559Y-109806501D01*
X144916667Y-109800500D01*
X145896427Y-109800500D01*
X145963466Y-109820185D01*
X145992280Y-109845835D01*
X146045663Y-109910883D01*
X146198007Y-110035909D01*
X146198014Y-110035913D01*
X146371813Y-110128811D01*
X146371816Y-110128811D01*
X146371820Y-110128814D01*
X146560415Y-110186024D01*
X146756547Y-110205341D01*
X146952679Y-110186024D01*
X147141274Y-110128814D01*
X147152930Y-110122584D01*
X147315079Y-110035913D01*
X147315085Y-110035910D01*
X147467430Y-109910883D01*
X147592457Y-109758538D01*
X147641895Y-109666047D01*
X147685358Y-109584733D01*
X147685358Y-109584732D01*
X147685361Y-109584727D01*
X147742571Y-109396132D01*
X147761888Y-109200000D01*
X147747090Y-109049754D01*
X147760109Y-108981111D01*
X147808174Y-108930401D01*
X147876024Y-108913726D01*
X147881266Y-108914072D01*
X147956547Y-108920659D01*
X148191955Y-108900063D01*
X148420210Y-108838903D01*
X148634377Y-108739035D01*
X148762338Y-108649436D01*
X149906206Y-108649436D01*
X149925522Y-108845565D01*
X149925523Y-108845568D01*
X149982226Y-109032493D01*
X149982735Y-109034169D01*
X150075633Y-109207968D01*
X150075637Y-109207975D01*
X150200663Y-109360319D01*
X150353007Y-109485345D01*
X150353014Y-109485349D01*
X150526813Y-109578247D01*
X150526816Y-109578247D01*
X150526820Y-109578250D01*
X150715415Y-109635460D01*
X150911547Y-109654777D01*
X151107679Y-109635460D01*
X151296274Y-109578250D01*
X151470085Y-109485346D01*
X151622430Y-109360319D01*
X151675814Y-109295271D01*
X151733559Y-109255937D01*
X151771667Y-109249936D01*
X154728442Y-109249936D01*
X154728458Y-109249937D01*
X154736054Y-109249937D01*
X154894165Y-109249937D01*
X154894168Y-109249937D01*
X155046896Y-109209013D01*
X155046897Y-109209012D01*
X155054653Y-109206934D01*
X155098900Y-109203306D01*
X155251547Y-109218341D01*
X155447679Y-109199024D01*
X155636274Y-109141814D01*
X155810085Y-109048910D01*
X155962430Y-108923883D01*
X156087457Y-108771538D01*
X156152722Y-108649436D01*
X156180358Y-108597733D01*
X156180358Y-108597732D01*
X156180361Y-108597727D01*
X156237571Y-108409132D01*
X156256888Y-108213000D01*
X156237571Y-108016868D01*
X156180361Y-107828273D01*
X156180358Y-107828269D01*
X156180358Y-107828266D01*
X156087460Y-107654467D01*
X156087456Y-107654460D01*
X155962430Y-107502116D01*
X155810086Y-107377090D01*
X155810079Y-107377086D01*
X155636280Y-107284188D01*
X155636274Y-107284186D01*
X155447679Y-107226976D01*
X155447676Y-107226975D01*
X155251547Y-107207659D01*
X155055417Y-107226975D01*
X154866813Y-107284188D01*
X154693014Y-107377086D01*
X154693007Y-107377090D01*
X154540663Y-107502116D01*
X154415637Y-107654460D01*
X154415633Y-107654467D01*
X154322734Y-107828268D01*
X154316620Y-107848425D01*
X154282490Y-107960932D01*
X154244194Y-108019370D01*
X154180382Y-108047826D01*
X154163831Y-108048936D01*
X151771667Y-108048936D01*
X151704628Y-108029251D01*
X151675814Y-108003601D01*
X151622430Y-107938552D01*
X151470086Y-107813526D01*
X151470079Y-107813522D01*
X151296280Y-107720624D01*
X151296274Y-107720622D01*
X151107679Y-107663412D01*
X151107676Y-107663411D01*
X150911547Y-107644095D01*
X150715417Y-107663411D01*
X150526813Y-107720624D01*
X150353014Y-107813522D01*
X150353007Y-107813526D01*
X150200663Y-107938552D01*
X150075637Y-108090896D01*
X150075633Y-108090903D01*
X149982735Y-108264702D01*
X149925522Y-108453306D01*
X149906206Y-108649436D01*
X148762338Y-108649436D01*
X148827948Y-108603495D01*
X148995042Y-108436401D01*
X149130582Y-108242830D01*
X149230450Y-108028663D01*
X149291610Y-107800408D01*
X149312206Y-107565000D01*
X149291610Y-107329592D01*
X149230450Y-107101337D01*
X149130582Y-106887171D01*
X149124971Y-106879158D01*
X148995043Y-106693600D01*
X148981442Y-106679999D01*
X148873114Y-106571671D01*
X148839631Y-106510351D01*
X148844615Y-106440659D01*
X148886486Y-106384725D01*
X148917462Y-106367810D01*
X149048878Y-106318796D01*
X149164093Y-106232546D01*
X149250343Y-106117331D01*
X149300638Y-105982483D01*
X149307047Y-105922873D01*
X149307046Y-104127128D01*
X149300638Y-104067517D01*
X149299357Y-104064083D01*
X149250344Y-103932671D01*
X149250340Y-103932664D01*
X149164094Y-103817455D01*
X149164091Y-103817452D01*
X149048882Y-103731206D01*
X149048875Y-103731202D01*
X148914029Y-103680908D01*
X148914030Y-103680908D01*
X148854430Y-103674501D01*
X148854428Y-103674500D01*
X148854420Y-103674500D01*
X148854411Y-103674500D01*
X147058676Y-103674500D01*
X147058670Y-103674501D01*
X146999063Y-103680908D01*
X146864218Y-103731202D01*
X146864211Y-103731206D01*
X146749002Y-103817452D01*
X146748999Y-103817455D01*
X146662753Y-103932664D01*
X146662750Y-103932669D01*
X146613736Y-104064083D01*
X146571864Y-104120016D01*
X146506400Y-104144433D01*
X146438127Y-104129581D01*
X146409873Y-104108430D01*
X146287949Y-103986506D01*
X146287942Y-103986501D01*
X146094381Y-103850967D01*
X146094377Y-103850965D01*
X146059889Y-103834883D01*
X145880210Y-103751097D01*
X145880206Y-103751096D01*
X145880202Y-103751094D01*
X145651960Y-103689938D01*
X145651950Y-103689936D01*
X145416548Y-103669341D01*
X145416546Y-103669341D01*
X145181143Y-103689936D01*
X145181133Y-103689938D01*
X144952891Y-103751094D01*
X144952882Y-103751098D01*
X144738718Y-103850964D01*
X144738716Y-103850965D01*
X144545144Y-103986505D01*
X144378052Y-104153597D01*
X144248122Y-104339158D01*
X144193545Y-104382783D01*
X144124047Y-104389977D01*
X144061692Y-104358454D01*
X144044972Y-104339158D01*
X143915041Y-104153597D01*
X143747949Y-103986506D01*
X143747942Y-103986501D01*
X143554381Y-103850967D01*
X143554377Y-103850965D01*
X143519889Y-103834883D01*
X143340210Y-103751097D01*
X143340206Y-103751096D01*
X143340202Y-103751094D01*
X143111960Y-103689938D01*
X143111950Y-103689936D01*
X142876548Y-103669341D01*
X142876546Y-103669341D01*
X142641143Y-103689936D01*
X142641133Y-103689938D01*
X142412891Y-103751094D01*
X142412882Y-103751098D01*
X142198718Y-103850964D01*
X142198716Y-103850965D01*
X142005144Y-103986505D01*
X141838052Y-104153597D01*
X141708122Y-104339158D01*
X141653545Y-104382783D01*
X141584047Y-104389977D01*
X141521692Y-104358454D01*
X141504972Y-104339158D01*
X141375041Y-104153597D01*
X141207949Y-103986506D01*
X141207942Y-103986501D01*
X141014381Y-103850967D01*
X141014377Y-103850965D01*
X140979889Y-103834883D01*
X140800210Y-103751097D01*
X140800206Y-103751096D01*
X140800202Y-103751094D01*
X140571960Y-103689938D01*
X140571950Y-103689936D01*
X140336548Y-103669341D01*
X140336546Y-103669341D01*
X140101143Y-103689936D01*
X140101133Y-103689938D01*
X139872891Y-103751094D01*
X139872882Y-103751098D01*
X139658718Y-103850964D01*
X139658716Y-103850965D01*
X139465144Y-103986505D01*
X139298052Y-104153597D01*
X139162512Y-104347169D01*
X139162511Y-104347171D01*
X139062645Y-104561335D01*
X139062641Y-104561344D01*
X139001485Y-104789586D01*
X139001483Y-104789596D01*
X138980888Y-105024999D01*
X133632047Y-105024999D01*
X133632047Y-94099999D01*
X136651206Y-94099999D01*
X136655450Y-94143090D01*
X136656047Y-94155244D01*
X136656047Y-95911041D01*
X136656047Y-95911043D01*
X136656046Y-95911043D01*
X136694494Y-96104329D01*
X136694497Y-96104339D01*
X136769911Y-96286407D01*
X136769918Y-96286420D01*
X136879406Y-96450280D01*
X136879407Y-96450281D01*
X136879408Y-96450282D01*
X137018765Y-96589639D01*
X137018766Y-96589639D01*
X137025833Y-96596706D01*
X137025832Y-96596706D01*
X137025836Y-96596709D01*
X138419728Y-97990601D01*
X138453213Y-98051924D01*
X138456047Y-98078282D01*
X138456047Y-98298542D01*
X138469863Y-98367999D01*
X138469863Y-98368000D01*
X138494494Y-98491828D01*
X138494496Y-98491836D01*
X138512814Y-98536059D01*
X138512814Y-98536060D01*
X138569911Y-98673907D01*
X138569918Y-98673920D01*
X138679407Y-98837781D01*
X138679410Y-98837785D01*
X138823084Y-98981459D01*
X138823106Y-98981479D01*
X139875708Y-100034081D01*
X139883879Y-100043096D01*
X139911350Y-100076569D01*
X139938070Y-100098498D01*
X139944820Y-100104037D01*
X139953838Y-100112211D01*
X139984446Y-100142820D01*
X139984449Y-100142822D01*
X139984452Y-100142825D01*
X140020440Y-100166871D01*
X140020452Y-100166879D01*
X140030225Y-100174128D01*
X140050384Y-100190672D01*
X140063695Y-100201596D01*
X140101880Y-100222006D01*
X140101884Y-100222008D01*
X140112323Y-100228265D01*
X140148319Y-100252317D01*
X140188320Y-100268887D01*
X140199315Y-100274087D01*
X140237506Y-100294500D01*
X140278954Y-100307073D01*
X140290399Y-100311169D01*
X140330389Y-100327734D01*
X140330390Y-100327734D01*
X140330397Y-100327737D01*
X140372865Y-100336183D01*
X140384657Y-100339137D01*
X140426101Y-100351710D01*
X140469198Y-100355954D01*
X140481224Y-100357738D01*
X140511714Y-100363803D01*
X140523692Y-100366186D01*
X140523693Y-100366186D01*
X140566989Y-100366186D01*
X140579142Y-100366782D01*
X140622233Y-100371027D01*
X140665323Y-100366782D01*
X140677477Y-100366186D01*
X140720774Y-100366186D01*
X140736686Y-100363020D01*
X140763237Y-100357739D01*
X140775269Y-100355954D01*
X140818365Y-100351710D01*
X140859803Y-100339138D01*
X140871603Y-100336183D01*
X140914069Y-100327737D01*
X140954088Y-100311159D01*
X140965508Y-100307073D01*
X141006960Y-100294500D01*
X141045155Y-100274083D01*
X141056134Y-100268890D01*
X141096147Y-100252317D01*
X141106880Y-100245145D01*
X141132141Y-100228266D01*
X141142565Y-100222016D01*
X141180771Y-100201596D01*
X141214253Y-100174116D01*
X141224013Y-100166879D01*
X141260014Y-100142825D01*
X141290627Y-100112210D01*
X141299644Y-100104038D01*
X141299645Y-100104037D01*
X141333116Y-100076569D01*
X141360586Y-100043095D01*
X141368759Y-100034079D01*
X141399372Y-100003467D01*
X141423426Y-99967466D01*
X141430663Y-99957706D01*
X141458143Y-99924224D01*
X141478563Y-99886018D01*
X141484813Y-99875594D01*
X141508860Y-99839606D01*
X141508860Y-99839605D01*
X141508864Y-99839600D01*
X141525437Y-99799587D01*
X141530634Y-99788602D01*
X141534676Y-99781040D01*
X141551047Y-99750413D01*
X141563620Y-99708961D01*
X141567706Y-99697541D01*
X141584284Y-99657522D01*
X141592730Y-99615056D01*
X141595687Y-99603252D01*
X141608257Y-99561818D01*
X141612501Y-99518722D01*
X141614287Y-99506684D01*
X141616217Y-99496985D01*
X141622733Y-99464226D01*
X141622733Y-99420930D01*
X141623330Y-99408776D01*
X141627574Y-99365686D01*
X141623330Y-99322593D01*
X141622733Y-99310440D01*
X141622733Y-99267145D01*
X141615642Y-99231498D01*
X141614285Y-99224677D01*
X141612501Y-99212648D01*
X141611640Y-99203910D01*
X141608257Y-99169554D01*
X141595684Y-99128110D01*
X141592729Y-99116311D01*
X141584284Y-99073850D01*
X141567715Y-99033851D01*
X141563620Y-99022407D01*
X141551047Y-98980959D01*
X141530635Y-98942770D01*
X141525434Y-98931773D01*
X141508864Y-98891772D01*
X141484812Y-98855776D01*
X141478555Y-98845337D01*
X141458143Y-98807148D01*
X141432600Y-98776024D01*
X141430675Y-98773678D01*
X141423426Y-98763905D01*
X141414639Y-98750754D01*
X141399372Y-98727905D01*
X141399369Y-98727902D01*
X141399367Y-98727899D01*
X141368758Y-98697291D01*
X141360584Y-98688273D01*
X141333117Y-98654804D01*
X141330871Y-98652961D01*
X141299643Y-98627332D01*
X141290628Y-98619161D01*
X141039466Y-98367999D01*
X146760784Y-98367999D01*
X146780100Y-98564129D01*
X146785758Y-98582781D01*
X146836712Y-98750754D01*
X146837313Y-98752733D01*
X146930211Y-98926532D01*
X146930215Y-98926539D01*
X147055241Y-99078883D01*
X147207585Y-99203909D01*
X147207592Y-99203913D01*
X147381391Y-99296811D01*
X147381394Y-99296811D01*
X147381398Y-99296814D01*
X147569993Y-99354024D01*
X147766125Y-99373341D01*
X147962257Y-99354024D01*
X148150852Y-99296814D01*
X148153483Y-99295408D01*
X148237757Y-99250362D01*
X148324663Y-99203910D01*
X148477008Y-99078883D01*
X148602035Y-98926538D01*
X148666464Y-98806000D01*
X148694936Y-98752733D01*
X148694936Y-98752732D01*
X148694939Y-98752727D01*
X148752149Y-98564132D01*
X148758234Y-98502346D01*
X148784394Y-98437559D01*
X148841429Y-98397200D01*
X148881637Y-98390500D01*
X149566351Y-98390500D01*
X149633390Y-98410185D01*
X149679145Y-98462989D01*
X149689089Y-98532147D01*
X149666780Y-98582781D01*
X149668830Y-98584151D01*
X149665443Y-98589219D01*
X149572545Y-98763018D01*
X149515332Y-98951622D01*
X149496016Y-99147752D01*
X149496016Y-99147753D01*
X149504263Y-99231498D01*
X149491243Y-99300143D01*
X149468541Y-99331331D01*
X149018833Y-99781040D01*
X149018825Y-99781044D01*
X149018827Y-99781046D01*
X149010820Y-99789052D01*
X148959141Y-99820025D01*
X148903634Y-99836863D01*
X148903630Y-99836865D01*
X148729828Y-99929764D01*
X148729821Y-99929768D01*
X148577477Y-100054794D01*
X148452451Y-100207138D01*
X148452447Y-100207145D01*
X148359549Y-100380944D01*
X148302336Y-100569548D01*
X148283020Y-100765678D01*
X148302336Y-100961807D01*
X148302337Y-100961810D01*
X148355279Y-101136337D01*
X148359549Y-101150411D01*
X148452447Y-101324210D01*
X148452451Y-101324217D01*
X148577477Y-101476561D01*
X148729821Y-101601587D01*
X148729828Y-101601591D01*
X148903627Y-101694489D01*
X148903630Y-101694489D01*
X148903634Y-101694492D01*
X149092229Y-101751702D01*
X149288361Y-101771019D01*
X149484493Y-101751702D01*
X149673088Y-101694492D01*
X149846899Y-101601588D01*
X149999244Y-101476561D01*
X150124271Y-101324216D01*
X150134851Y-101304423D01*
X150183812Y-101254578D01*
X150251950Y-101239116D01*
X150317630Y-101262946D01*
X150322877Y-101267023D01*
X150329821Y-101272722D01*
X150329829Y-101272727D01*
X150503628Y-101365625D01*
X150503631Y-101365625D01*
X150503635Y-101365628D01*
X150692230Y-101422838D01*
X150879820Y-101441313D01*
X150944607Y-101467473D01*
X150955347Y-101477035D01*
X152418731Y-102940419D01*
X152452216Y-103001742D01*
X152454453Y-103040252D01*
X152446206Y-103123998D01*
X152446206Y-103123999D01*
X152465522Y-103320129D01*
X152471702Y-103340500D01*
X152521595Y-103504977D01*
X152522735Y-103508733D01*
X152615633Y-103682532D01*
X152615637Y-103682539D01*
X152740663Y-103834883D01*
X152893007Y-103959909D01*
X152893014Y-103959913D01*
X153066813Y-104052811D01*
X153066816Y-104052811D01*
X153066820Y-104052814D01*
X153255415Y-104110024D01*
X153451547Y-104129341D01*
X153647679Y-104110024D01*
X153836274Y-104052814D01*
X154010085Y-103959910D01*
X154162430Y-103834883D01*
X154287457Y-103682538D01*
X154380361Y-103508727D01*
X154437571Y-103320132D01*
X154456888Y-103124000D01*
X154437571Y-102927868D01*
X154380361Y-102739273D01*
X154380358Y-102739269D01*
X154380358Y-102739266D01*
X154287460Y-102565467D01*
X154287456Y-102565460D01*
X154162430Y-102413116D01*
X154073337Y-102339999D01*
X157006206Y-102339999D01*
X157010450Y-102383090D01*
X157011047Y-102395244D01*
X157011047Y-102438543D01*
X157019492Y-102481005D01*
X157021277Y-102493034D01*
X157025522Y-102536130D01*
X157025524Y-102536137D01*
X157038094Y-102577577D01*
X157041050Y-102589378D01*
X157049494Y-102631829D01*
X157049495Y-102631831D01*
X157049496Y-102631836D01*
X157066070Y-102671850D01*
X157070162Y-102683288D01*
X157082732Y-102724725D01*
X157082734Y-102724730D01*
X157103146Y-102762919D01*
X157108347Y-102773915D01*
X157124916Y-102813914D01*
X157124916Y-102813915D01*
X157148969Y-102849913D01*
X157155223Y-102860347D01*
X157175636Y-102898537D01*
X157175639Y-102898541D01*
X157203104Y-102932007D01*
X157210353Y-102941781D01*
X157234407Y-102977780D01*
X157234410Y-102977784D01*
X157265021Y-103008394D01*
X157273193Y-103017410D01*
X157300664Y-103050883D01*
X157334126Y-103078345D01*
X157334134Y-103078351D01*
X157343152Y-103086525D01*
X157373760Y-103117134D01*
X157373763Y-103117136D01*
X157373766Y-103117139D01*
X157409766Y-103141193D01*
X157419539Y-103148442D01*
X157439698Y-103164986D01*
X157453009Y-103175910D01*
X157491194Y-103196320D01*
X157491198Y-103196322D01*
X157501637Y-103202579D01*
X157537633Y-103226631D01*
X157577634Y-103243201D01*
X157588629Y-103248401D01*
X157626820Y-103268814D01*
X157668268Y-103281387D01*
X157679713Y-103285483D01*
X157719703Y-103302048D01*
X157719704Y-103302048D01*
X157719711Y-103302051D01*
X157762179Y-103310497D01*
X157773971Y-103313451D01*
X157815415Y-103326024D01*
X157858512Y-103330268D01*
X157870538Y-103332052D01*
X157901028Y-103338117D01*
X157913006Y-103340500D01*
X157913007Y-103340500D01*
X157956303Y-103340500D01*
X157968456Y-103341096D01*
X158011547Y-103345341D01*
X158054637Y-103341096D01*
X158066791Y-103340500D01*
X158110088Y-103340500D01*
X158126000Y-103337334D01*
X158152551Y-103332053D01*
X158164583Y-103330268D01*
X158207679Y-103326024D01*
X158249117Y-103313452D01*
X158260917Y-103310497D01*
X158303383Y-103302051D01*
X158343402Y-103285473D01*
X158354822Y-103281387D01*
X158396274Y-103268814D01*
X158434469Y-103248397D01*
X158445448Y-103243204D01*
X158485461Y-103226631D01*
X158521455Y-103202580D01*
X158531879Y-103196330D01*
X158570085Y-103175910D01*
X158586704Y-103162269D01*
X158603559Y-103148438D01*
X158613330Y-103141190D01*
X158649328Y-103117139D01*
X158652248Y-103114218D01*
X158652258Y-103114211D01*
X158664967Y-103101501D01*
X158679954Y-103086512D01*
X158688949Y-103078359D01*
X158722430Y-103050883D01*
X158749905Y-103017403D01*
X158758058Y-103008408D01*
X158798686Y-102967782D01*
X158830601Y-102920016D01*
X158837849Y-102910244D01*
X158847457Y-102898538D01*
X158854597Y-102885177D01*
X158860849Y-102874747D01*
X158870470Y-102860348D01*
X158908179Y-102803914D01*
X158970644Y-102653110D01*
X158983598Y-102621836D01*
X158990055Y-102589378D01*
X159010492Y-102486632D01*
X159010492Y-102486631D01*
X159013521Y-102471402D01*
X159022047Y-102428541D01*
X159022047Y-98861244D01*
X159022644Y-98849090D01*
X159023757Y-98837785D01*
X159026888Y-98806000D01*
X159022742Y-98763905D01*
X159022644Y-98762907D01*
X159022047Y-98750754D01*
X159022047Y-98707458D01*
X159018231Y-98688273D01*
X159013599Y-98664990D01*
X159011815Y-98652961D01*
X159009531Y-98629775D01*
X159007571Y-98609868D01*
X158994995Y-98568414D01*
X158992046Y-98556640D01*
X158983598Y-98514165D01*
X158967027Y-98474159D01*
X158962930Y-98462710D01*
X158950361Y-98421273D01*
X158929951Y-98383091D01*
X158924750Y-98372095D01*
X158908179Y-98332086D01*
X158885765Y-98298542D01*
X158884119Y-98296078D01*
X158877863Y-98285640D01*
X158857458Y-98247464D01*
X158857457Y-98247462D01*
X158829985Y-98213988D01*
X158822741Y-98204219D01*
X158798687Y-98168219D01*
X158798683Y-98168214D01*
X158768067Y-98137599D01*
X158759893Y-98128581D01*
X158732431Y-98095118D01*
X158698963Y-98067651D01*
X158689948Y-98059479D01*
X158659334Y-98028865D01*
X158659330Y-98028862D01*
X158659327Y-98028860D01*
X158642686Y-98017740D01*
X158623319Y-98004799D01*
X158613549Y-97997552D01*
X158580090Y-97970094D01*
X158580082Y-97970088D01*
X158562983Y-97960948D01*
X158541897Y-97949678D01*
X158531465Y-97943425D01*
X158495465Y-97919370D01*
X158495461Y-97919368D01*
X158455462Y-97902800D01*
X158444460Y-97897597D01*
X158406276Y-97877187D01*
X158406275Y-97877186D01*
X158406274Y-97877186D01*
X158364824Y-97864612D01*
X158353381Y-97860517D01*
X158313381Y-97843948D01*
X158313374Y-97843946D01*
X158270925Y-97835503D01*
X158259122Y-97832547D01*
X158217681Y-97819976D01*
X158217677Y-97819975D01*
X158174582Y-97815730D01*
X158162553Y-97813945D01*
X158120091Y-97805500D01*
X158120088Y-97805500D01*
X158076791Y-97805500D01*
X158064637Y-97804903D01*
X158021547Y-97800659D01*
X157978457Y-97804903D01*
X157966303Y-97805500D01*
X157923000Y-97805500D01*
X157880538Y-97813945D01*
X157868510Y-97815730D01*
X157825414Y-97819976D01*
X157783974Y-97832546D01*
X157772173Y-97835502D01*
X157729713Y-97843948D01*
X157729708Y-97843949D01*
X157689706Y-97860518D01*
X157678254Y-97864616D01*
X157636819Y-97877186D01*
X157598638Y-97897594D01*
X157587640Y-97902795D01*
X157547638Y-97919364D01*
X157511627Y-97943426D01*
X157501192Y-97949680D01*
X157463012Y-97970087D01*
X157463007Y-97970091D01*
X157429537Y-97997557D01*
X157419772Y-98004799D01*
X157383772Y-98028855D01*
X157383766Y-98028860D01*
X157353142Y-98059483D01*
X157344131Y-98067650D01*
X157310664Y-98095117D01*
X157283197Y-98128584D01*
X157275030Y-98137595D01*
X157244407Y-98168219D01*
X157244402Y-98168225D01*
X157220346Y-98204225D01*
X157213104Y-98213990D01*
X157185638Y-98247460D01*
X157185634Y-98247465D01*
X157165227Y-98285645D01*
X157158973Y-98296080D01*
X157134911Y-98332091D01*
X157118342Y-98372093D01*
X157113141Y-98383091D01*
X157092733Y-98421272D01*
X157080163Y-98462707D01*
X157076065Y-98474159D01*
X157059496Y-98514161D01*
X157059495Y-98514166D01*
X157051049Y-98556626D01*
X157048093Y-98568427D01*
X157035523Y-98609867D01*
X157031277Y-98652963D01*
X157029492Y-98664991D01*
X157021047Y-98707453D01*
X157021047Y-98750754D01*
X157020450Y-98762907D01*
X157016206Y-98805999D01*
X157020450Y-98849090D01*
X157021047Y-98861244D01*
X157021047Y-102178969D01*
X157018665Y-102203157D01*
X157011047Y-102241459D01*
X157011047Y-102284754D01*
X157010450Y-102296907D01*
X157006206Y-102339999D01*
X154073337Y-102339999D01*
X154010086Y-102288090D01*
X154010079Y-102288086D01*
X153836280Y-102195188D01*
X153836274Y-102195186D01*
X153647679Y-102137976D01*
X153647676Y-102137975D01*
X153451547Y-102118659D01*
X153451546Y-102118659D01*
X153367799Y-102126906D01*
X153299153Y-102113886D01*
X153267966Y-102091184D01*
X151910059Y-100733277D01*
X151876574Y-100671954D01*
X151874337Y-100633442D01*
X151881422Y-100561505D01*
X151893703Y-100436814D01*
X151874386Y-100240682D01*
X151817176Y-100052087D01*
X151817173Y-100052083D01*
X151817173Y-100052080D01*
X151724275Y-99878281D01*
X151724271Y-99878274D01*
X151599245Y-99725930D01*
X151480933Y-99628834D01*
X151441599Y-99571088D01*
X151439728Y-99501244D01*
X151440938Y-99496985D01*
X151478445Y-99373341D01*
X151487381Y-99343884D01*
X151506698Y-99147752D01*
X151487381Y-98951620D01*
X151430171Y-98763025D01*
X151430169Y-98763021D01*
X151428875Y-98758755D01*
X151428252Y-98688888D01*
X151465500Y-98629775D01*
X151468871Y-98626906D01*
X151478309Y-98619161D01*
X151622430Y-98500883D01*
X151747457Y-98348538D01*
X151765358Y-98315047D01*
X151818189Y-98216209D01*
X151867151Y-98166365D01*
X151935289Y-98150904D01*
X152000968Y-98174736D01*
X152036905Y-98216209D01*
X152107633Y-98348532D01*
X152107637Y-98348539D01*
X152232663Y-98500883D01*
X152385007Y-98625909D01*
X152385014Y-98625913D01*
X152558813Y-98718811D01*
X152558816Y-98718811D01*
X152558820Y-98718814D01*
X152747415Y-98776024D01*
X152943547Y-98795341D01*
X153139679Y-98776024D01*
X153328274Y-98718814D01*
X153502085Y-98625910D01*
X153654430Y-98500883D01*
X153779457Y-98348538D01*
X153851372Y-98213995D01*
X153872358Y-98174733D01*
X153872358Y-98174732D01*
X153872361Y-98174727D01*
X153929571Y-97986132D01*
X153948888Y-97790000D01*
X153929571Y-97593868D01*
X153872361Y-97405273D01*
X153872358Y-97405269D01*
X153872358Y-97405266D01*
X153779460Y-97231467D01*
X153779456Y-97231460D01*
X153654430Y-97079116D01*
X153502086Y-96954090D01*
X153502079Y-96954086D01*
X153328280Y-96861188D01*
X153328274Y-96861186D01*
X153139679Y-96803976D01*
X153139676Y-96803975D01*
X152980493Y-96788297D01*
X152915705Y-96762136D01*
X152875347Y-96705101D01*
X152871671Y-96650193D01*
X152869788Y-96650008D01*
X152875037Y-96596709D01*
X152889702Y-96447814D01*
X152870385Y-96251682D01*
X152813175Y-96063087D01*
X152813172Y-96063083D01*
X152813172Y-96063080D01*
X152720274Y-95889281D01*
X152720270Y-95889274D01*
X152595244Y-95736930D01*
X152442900Y-95611904D01*
X152442893Y-95611900D01*
X152269094Y-95519002D01*
X152269088Y-95519000D01*
X152080493Y-95461790D01*
X152080490Y-95461789D01*
X151884361Y-95442473D01*
X151688231Y-95461789D01*
X151499627Y-95519002D01*
X151325828Y-95611900D01*
X151325821Y-95611904D01*
X151173477Y-95736930D01*
X151048451Y-95889274D01*
X151048447Y-95889281D01*
X150955549Y-96063080D01*
X150898336Y-96251684D01*
X150879020Y-96447814D01*
X150898336Y-96643943D01*
X150899352Y-96649048D01*
X150893123Y-96718640D01*
X150850259Y-96773817D01*
X150789888Y-96796641D01*
X150715417Y-96803975D01*
X150526813Y-96861188D01*
X150353014Y-96954086D01*
X150353007Y-96954090D01*
X150200663Y-97079116D01*
X150147280Y-97144165D01*
X150089535Y-97183499D01*
X150051427Y-97189500D01*
X148292487Y-97189500D01*
X148251566Y-97200464D01*
X148251566Y-97200465D01*
X148214298Y-97210451D01*
X148139761Y-97230423D01*
X148139756Y-97230426D01*
X148002832Y-97309478D01*
X147974665Y-97337645D01*
X147913341Y-97371129D01*
X147874832Y-97373365D01*
X147766125Y-97362659D01*
X147569995Y-97381975D01*
X147381391Y-97439188D01*
X147207592Y-97532086D01*
X147207585Y-97532090D01*
X147055241Y-97657116D01*
X146930215Y-97809460D01*
X146930211Y-97809467D01*
X146837313Y-97983266D01*
X146780100Y-98171870D01*
X146760784Y-98367999D01*
X141039466Y-98367999D01*
X140493366Y-97821899D01*
X140459881Y-97760576D01*
X140457047Y-97734218D01*
X140457047Y-97667744D01*
X140457644Y-97655590D01*
X140458402Y-97647890D01*
X140461888Y-97612500D01*
X140457644Y-97569407D01*
X140457047Y-97557254D01*
X140457047Y-97513958D01*
X140454664Y-97501980D01*
X140448599Y-97471490D01*
X140446815Y-97459461D01*
X140444818Y-97439188D01*
X140442571Y-97416368D01*
X140429998Y-97374922D01*
X140427046Y-97363136D01*
X140418598Y-97320664D01*
X140402022Y-97280647D01*
X140397933Y-97269218D01*
X140385361Y-97227773D01*
X140364951Y-97189591D01*
X140359748Y-97178590D01*
X140343179Y-97138586D01*
X140319119Y-97102578D01*
X140312863Y-97092140D01*
X140292458Y-97053964D01*
X140292457Y-97053962D01*
X140264985Y-97020488D01*
X140257741Y-97010719D01*
X140233687Y-96974719D01*
X140233683Y-96974714D01*
X140203067Y-96944099D01*
X140194893Y-96935081D01*
X140167430Y-96901616D01*
X140133964Y-96874152D01*
X140124947Y-96865979D01*
X138693366Y-95434398D01*
X138659881Y-95373075D01*
X138657047Y-95346717D01*
X138657047Y-94155244D01*
X138657644Y-94143090D01*
X138661888Y-94100000D01*
X138657644Y-94056907D01*
X138657047Y-94044754D01*
X138657047Y-94001458D01*
X138654664Y-93989480D01*
X138648599Y-93958990D01*
X138646815Y-93946961D01*
X138642571Y-93903869D01*
X138642571Y-93903868D01*
X138629995Y-93862414D01*
X138627046Y-93850640D01*
X138618598Y-93808165D01*
X138602027Y-93768159D01*
X138597930Y-93756710D01*
X138585361Y-93715273D01*
X138564951Y-93677091D01*
X138559750Y-93666095D01*
X138543179Y-93626086D01*
X138519119Y-93590078D01*
X138512863Y-93579640D01*
X138492458Y-93541464D01*
X138492457Y-93541462D01*
X138464985Y-93507988D01*
X138457741Y-93498219D01*
X138433687Y-93462219D01*
X138433683Y-93462214D01*
X138403067Y-93431599D01*
X138394893Y-93422581D01*
X138367431Y-93389118D01*
X138333963Y-93361651D01*
X138324948Y-93353479D01*
X138294334Y-93322865D01*
X138294330Y-93322862D01*
X138294327Y-93322860D01*
X138263362Y-93302169D01*
X138258319Y-93298799D01*
X138248549Y-93291552D01*
X138215090Y-93264094D01*
X138215082Y-93264088D01*
X138197983Y-93254948D01*
X138176897Y-93243678D01*
X138166465Y-93237425D01*
X138130465Y-93213370D01*
X138130461Y-93213368D01*
X138090462Y-93196800D01*
X138079460Y-93191597D01*
X138041276Y-93171187D01*
X138041275Y-93171186D01*
X138041274Y-93171186D01*
X137999824Y-93158612D01*
X137988381Y-93154517D01*
X137948381Y-93137948D01*
X137948374Y-93137946D01*
X137905925Y-93129503D01*
X137894122Y-93126547D01*
X137852681Y-93113976D01*
X137852677Y-93113975D01*
X137809582Y-93109730D01*
X137797553Y-93107945D01*
X137755091Y-93099500D01*
X137755088Y-93099500D01*
X137711791Y-93099500D01*
X137699637Y-93098903D01*
X137656547Y-93094659D01*
X137613457Y-93098903D01*
X137601303Y-93099500D01*
X137558000Y-93099500D01*
X137515538Y-93107945D01*
X137503510Y-93109730D01*
X137460414Y-93113976D01*
X137418974Y-93126546D01*
X137407173Y-93129502D01*
X137364713Y-93137948D01*
X137364708Y-93137949D01*
X137324706Y-93154518D01*
X137313254Y-93158616D01*
X137271819Y-93171186D01*
X137233638Y-93191594D01*
X137222640Y-93196795D01*
X137182638Y-93213364D01*
X137146627Y-93237426D01*
X137136192Y-93243680D01*
X137098012Y-93264087D01*
X137098007Y-93264091D01*
X137064537Y-93291557D01*
X137054772Y-93298799D01*
X137018772Y-93322855D01*
X137018766Y-93322860D01*
X136988142Y-93353483D01*
X136979131Y-93361650D01*
X136945664Y-93389117D01*
X136918197Y-93422584D01*
X136910030Y-93431595D01*
X136879407Y-93462219D01*
X136879402Y-93462225D01*
X136855346Y-93498225D01*
X136848104Y-93507990D01*
X136820638Y-93541460D01*
X136820634Y-93541465D01*
X136800227Y-93579645D01*
X136793973Y-93590080D01*
X136769911Y-93626091D01*
X136753342Y-93666093D01*
X136748141Y-93677091D01*
X136727733Y-93715272D01*
X136715163Y-93756707D01*
X136711065Y-93768159D01*
X136694496Y-93808161D01*
X136694495Y-93808166D01*
X136686049Y-93850626D01*
X136683093Y-93862427D01*
X136670523Y-93903867D01*
X136666277Y-93946963D01*
X136664492Y-93958991D01*
X136656047Y-94001453D01*
X136656047Y-94044754D01*
X136655450Y-94056907D01*
X136651206Y-94099999D01*
X133632047Y-94099999D01*
X133632047Y-79374999D01*
X138760888Y-79374999D01*
X138760888Y-79375000D01*
X138781483Y-79610403D01*
X138781485Y-79610413D01*
X138842641Y-79838655D01*
X138842643Y-79838659D01*
X138842644Y-79838663D01*
X138922348Y-80009588D01*
X138942512Y-80052830D01*
X138942514Y-80052834D01*
X139038661Y-80190145D01*
X139078051Y-80246400D01*
X139078053Y-80246402D01*
X139200365Y-80368714D01*
X139233850Y-80430037D01*
X139228866Y-80499729D01*
X139186994Y-80555662D01*
X139156018Y-80572577D01*
X139024459Y-80621646D01*
X139024453Y-80621649D01*
X138909359Y-80707809D01*
X138909356Y-80707812D01*
X138823196Y-80822906D01*
X138823192Y-80822913D01*
X138772950Y-80957620D01*
X138772948Y-80957627D01*
X138766547Y-81017155D01*
X138766547Y-81665000D01*
X139683535Y-81665000D01*
X139650622Y-81722007D01*
X139616547Y-81849174D01*
X139616547Y-81980826D01*
X139650622Y-82107993D01*
X139683535Y-82165000D01*
X138766547Y-82165000D01*
X138766547Y-82812844D01*
X138772948Y-82872372D01*
X138772950Y-82872379D01*
X138823192Y-83007086D01*
X138823196Y-83007093D01*
X138909356Y-83122187D01*
X138909359Y-83122190D01*
X139024453Y-83208350D01*
X139024460Y-83208354D01*
X139159167Y-83258596D01*
X139159174Y-83258598D01*
X139218702Y-83264999D01*
X139218719Y-83265000D01*
X139866547Y-83265000D01*
X139866547Y-82348012D01*
X139923554Y-82380925D01*
X140050721Y-82415000D01*
X140182373Y-82415000D01*
X140309540Y-82380925D01*
X140366547Y-82348012D01*
X140366547Y-83265000D01*
X141014375Y-83265000D01*
X141014391Y-83264999D01*
X141073919Y-83258598D01*
X141073926Y-83258596D01*
X141208633Y-83208354D01*
X141208640Y-83208350D01*
X141323734Y-83122190D01*
X141323737Y-83122187D01*
X141409897Y-83007093D01*
X141409901Y-83007086D01*
X141459161Y-82875013D01*
X141501032Y-82819079D01*
X141566496Y-82794662D01*
X141634769Y-82809513D01*
X141663024Y-82830665D01*
X141785464Y-82953105D01*
X141978968Y-83088600D01*
X142193054Y-83188429D01*
X142193063Y-83188433D01*
X142406547Y-83245634D01*
X142406547Y-82348012D01*
X142463554Y-82380925D01*
X142590721Y-82415000D01*
X142722373Y-82415000D01*
X142849540Y-82380925D01*
X142906547Y-82348012D01*
X142906547Y-83245633D01*
X143120030Y-83188433D01*
X143120039Y-83188429D01*
X143334125Y-83088600D01*
X143527629Y-82953105D01*
X143694652Y-82786082D01*
X143824666Y-82600405D01*
X143879243Y-82556781D01*
X143948742Y-82549588D01*
X144011096Y-82581110D01*
X144027816Y-82600405D01*
X144158052Y-82786401D01*
X144325146Y-82953495D01*
X144397086Y-83003868D01*
X144518712Y-83089032D01*
X144518714Y-83089033D01*
X144518717Y-83089035D01*
X144732884Y-83188903D01*
X144961139Y-83250063D01*
X145131866Y-83265000D01*
X145196546Y-83270659D01*
X145196547Y-83270659D01*
X145196548Y-83270659D01*
X145261228Y-83265000D01*
X145431955Y-83250063D01*
X145660210Y-83188903D01*
X145874377Y-83089035D01*
X146067948Y-82953495D01*
X146235042Y-82786401D01*
X146364972Y-82600842D01*
X146419549Y-82557217D01*
X146489047Y-82550023D01*
X146551402Y-82581546D01*
X146568122Y-82600842D01*
X146697828Y-82786082D01*
X146698052Y-82786401D01*
X146865146Y-82953495D01*
X146937086Y-83003868D01*
X147058712Y-83089032D01*
X147058714Y-83089033D01*
X147058717Y-83089035D01*
X147272884Y-83188903D01*
X147272890Y-83188904D01*
X147272891Y-83188905D01*
X147317717Y-83200916D01*
X147377377Y-83237281D01*
X147407907Y-83300127D01*
X147399613Y-83369503D01*
X147355128Y-83423381D01*
X147344077Y-83430049D01*
X147228014Y-83492085D01*
X147228007Y-83492090D01*
X147075663Y-83617116D01*
X146950637Y-83769460D01*
X146950633Y-83769467D01*
X146857735Y-83943266D01*
X146800522Y-84131870D01*
X146781206Y-84328000D01*
X146800522Y-84524129D01*
X146857735Y-84712733D01*
X146950633Y-84886532D01*
X146950637Y-84886539D01*
X147075663Y-85038883D01*
X147228007Y-85163909D01*
X147228014Y-85163913D01*
X147401813Y-85256811D01*
X147401816Y-85256811D01*
X147401820Y-85256814D01*
X147590415Y-85314024D01*
X147786547Y-85333341D01*
X147870292Y-85325092D01*
X147938936Y-85338110D01*
X147970126Y-85360814D01*
X148121372Y-85512060D01*
X148121382Y-85512071D01*
X148125712Y-85516401D01*
X148125713Y-85516402D01*
X148237517Y-85628206D01*
X148317110Y-85674158D01*
X148324328Y-85678325D01*
X148324330Y-85678327D01*
X148350531Y-85693454D01*
X148374448Y-85707263D01*
X148527176Y-85748186D01*
X150617113Y-85748186D01*
X150684152Y-85767871D01*
X150712966Y-85793521D01*
X150766349Y-85858569D01*
X150918693Y-85983595D01*
X150918700Y-85983599D01*
X151092499Y-86076497D01*
X151092502Y-86076497D01*
X151092506Y-86076500D01*
X151281101Y-86133710D01*
X151477233Y-86153027D01*
X151673365Y-86133710D01*
X151861960Y-86076500D01*
X152035771Y-85983596D01*
X152188116Y-85858569D01*
X152313143Y-85706224D01*
X152406047Y-85532413D01*
X152463257Y-85343818D01*
X152482574Y-85147686D01*
X152463257Y-84951554D01*
X152406047Y-84762959D01*
X152406044Y-84762955D01*
X152406044Y-84762952D01*
X152313146Y-84589153D01*
X152313142Y-84589146D01*
X152188116Y-84436802D01*
X152160631Y-84414246D01*
X152121297Y-84356500D01*
X152119426Y-84286656D01*
X152155614Y-84226887D01*
X152218370Y-84196172D01*
X152251450Y-84194990D01*
X152356547Y-84205341D01*
X152552679Y-84186024D01*
X152741274Y-84128814D01*
X152915085Y-84035910D01*
X153067430Y-83910883D01*
X153192457Y-83758538D01*
X153285361Y-83584727D01*
X153342571Y-83396132D01*
X153361888Y-83200000D01*
X153342571Y-83003868D01*
X153285361Y-82815273D01*
X153285358Y-82815269D01*
X153285358Y-82815266D01*
X153192460Y-82641467D01*
X153192456Y-82641460D01*
X153067430Y-82489116D01*
X152915086Y-82364090D01*
X152915079Y-82364086D01*
X152741280Y-82271188D01*
X152741274Y-82271186D01*
X152552679Y-82213976D01*
X152552676Y-82213975D01*
X152356547Y-82194659D01*
X152160417Y-82213975D01*
X151971813Y-82271188D01*
X151798014Y-82364086D01*
X151798003Y-82364093D01*
X151783993Y-82375591D01*
X151719683Y-82402903D01*
X151650816Y-82391110D01*
X151599257Y-82343956D01*
X151581376Y-82276413D01*
X151585556Y-82247643D01*
X151607700Y-82165000D01*
X151611610Y-82150408D01*
X151632206Y-81915000D01*
X151611610Y-81679592D01*
X151550450Y-81451337D01*
X151450582Y-81237171D01*
X151445278Y-81229595D01*
X151315041Y-81043597D01*
X151147949Y-80876506D01*
X151147943Y-80876501D01*
X150962389Y-80746575D01*
X150918764Y-80691998D01*
X150911570Y-80622500D01*
X150943093Y-80560145D01*
X150962389Y-80543425D01*
X151074047Y-80465241D01*
X151147948Y-80413495D01*
X151315042Y-80246401D01*
X151450582Y-80052830D01*
X151550450Y-79838663D01*
X151611610Y-79610408D01*
X151632206Y-79375000D01*
X151611610Y-79139592D01*
X151550450Y-78911337D01*
X151450582Y-78697171D01*
X151445278Y-78689595D01*
X151315041Y-78503597D01*
X151147949Y-78336506D01*
X151147942Y-78336501D01*
X150954381Y-78200967D01*
X150954377Y-78200965D01*
X150954375Y-78200964D01*
X150740210Y-78101097D01*
X150740206Y-78101096D01*
X150740202Y-78101094D01*
X150511960Y-78039938D01*
X150511950Y-78039936D01*
X150276548Y-78019341D01*
X150276546Y-78019341D01*
X150041143Y-78039936D01*
X150041133Y-78039938D01*
X149812891Y-78101094D01*
X149812882Y-78101098D01*
X149598718Y-78200964D01*
X149598716Y-78200965D01*
X149405144Y-78336505D01*
X149238052Y-78503597D01*
X149108122Y-78689158D01*
X149053545Y-78732783D01*
X148984047Y-78739977D01*
X148921692Y-78708454D01*
X148904972Y-78689158D01*
X148775041Y-78503597D01*
X148607949Y-78336506D01*
X148607942Y-78336501D01*
X148414381Y-78200967D01*
X148414377Y-78200965D01*
X148414375Y-78200964D01*
X148200210Y-78101097D01*
X148200206Y-78101096D01*
X148200202Y-78101094D01*
X147971960Y-78039938D01*
X147971950Y-78039936D01*
X147736548Y-78019341D01*
X147736546Y-78019341D01*
X147501143Y-78039936D01*
X147501133Y-78039938D01*
X147272891Y-78101094D01*
X147272882Y-78101098D01*
X147058718Y-78200964D01*
X147058716Y-78200965D01*
X146865144Y-78336505D01*
X146698052Y-78503597D01*
X146568122Y-78689158D01*
X146513545Y-78732783D01*
X146444047Y-78739977D01*
X146381692Y-78708454D01*
X146364972Y-78689158D01*
X146235041Y-78503597D01*
X146067949Y-78336506D01*
X146067942Y-78336501D01*
X145874381Y-78200967D01*
X145874377Y-78200965D01*
X145874375Y-78200964D01*
X145660210Y-78101097D01*
X145660206Y-78101096D01*
X145660202Y-78101094D01*
X145431960Y-78039938D01*
X145431950Y-78039936D01*
X145196548Y-78019341D01*
X145196546Y-78019341D01*
X144961143Y-78039936D01*
X144961133Y-78039938D01*
X144732891Y-78101094D01*
X144732882Y-78101098D01*
X144518718Y-78200964D01*
X144518716Y-78200965D01*
X144325144Y-78336505D01*
X144158055Y-78503594D01*
X144027816Y-78689595D01*
X143973239Y-78733219D01*
X143903740Y-78740412D01*
X143841386Y-78708890D01*
X143824666Y-78689594D01*
X143694660Y-78503926D01*
X143694655Y-78503920D01*
X143527629Y-78336894D01*
X143334125Y-78201399D01*
X143120039Y-78101570D01*
X143120033Y-78101567D01*
X142906547Y-78044364D01*
X142906547Y-78941988D01*
X142849540Y-78909075D01*
X142722373Y-78875000D01*
X142590721Y-78875000D01*
X142463554Y-78909075D01*
X142406547Y-78941988D01*
X142406547Y-78044364D01*
X142406546Y-78044364D01*
X142193060Y-78101567D01*
X142193054Y-78101570D01*
X141978969Y-78201399D01*
X141978967Y-78201400D01*
X141785473Y-78336886D01*
X141785467Y-78336891D01*
X141618438Y-78503920D01*
X141618437Y-78503922D01*
X141488427Y-78689595D01*
X141433850Y-78733219D01*
X141364351Y-78740412D01*
X141301997Y-78708890D01*
X141285277Y-78689594D01*
X141155041Y-78503597D01*
X140987949Y-78336506D01*
X140987942Y-78336501D01*
X140794381Y-78200967D01*
X140794377Y-78200965D01*
X140794375Y-78200964D01*
X140580210Y-78101097D01*
X140580206Y-78101096D01*
X140580202Y-78101094D01*
X140351960Y-78039938D01*
X140351950Y-78039936D01*
X140116548Y-78019341D01*
X140116546Y-78019341D01*
X139881143Y-78039936D01*
X139881133Y-78039938D01*
X139652891Y-78101094D01*
X139652882Y-78101098D01*
X139438718Y-78200964D01*
X139438716Y-78200965D01*
X139245144Y-78336505D01*
X139078052Y-78503597D01*
X138942512Y-78697169D01*
X138942511Y-78697171D01*
X138842645Y-78911335D01*
X138842641Y-78911344D01*
X138781485Y-79139586D01*
X138781483Y-79139596D01*
X138760888Y-79374999D01*
X133632047Y-79374999D01*
X133632047Y-74284500D01*
X133651732Y-74217461D01*
X133704536Y-74171706D01*
X133756047Y-74160500D01*
X165582437Y-74160500D01*
X165582439Y-74160500D01*
X165709733Y-74126392D01*
X165823861Y-74060500D01*
X165917047Y-73967314D01*
X165982939Y-73853186D01*
X166017047Y-73725892D01*
X166017047Y-61701427D01*
X166036732Y-61634388D01*
X166089536Y-61588633D01*
X166158694Y-61578689D01*
X166222250Y-61607714D01*
X166243803Y-61633818D01*
X166244407Y-61633396D01*
X166383048Y-61831395D01*
X166383053Y-61831402D01*
X166454728Y-61903077D01*
X166488213Y-61964400D01*
X166491047Y-61990758D01*
X166491047Y-63184701D01*
X166491046Y-63184719D01*
X166491046Y-63350425D01*
X166491045Y-63350425D01*
X166531970Y-63503156D01*
X166560905Y-63553271D01*
X166560906Y-63553275D01*
X166560907Y-63553275D01*
X166611026Y-63640085D01*
X166611028Y-63640088D01*
X166729896Y-63758956D01*
X166729902Y-63758961D01*
X167075315Y-64104374D01*
X167075325Y-64104385D01*
X167079655Y-64108715D01*
X167079656Y-64108716D01*
X167191460Y-64220520D01*
X167191462Y-64220521D01*
X167191466Y-64220524D01*
X167328385Y-64299573D01*
X167328392Y-64299577D01*
X167415062Y-64322800D01*
X167481118Y-64340500D01*
X167481119Y-64340500D01*
X168136249Y-64340500D01*
X168136265Y-64340501D01*
X168143861Y-64340501D01*
X168301972Y-64340501D01*
X168301975Y-64340501D01*
X168454703Y-64299577D01*
X168504822Y-64270639D01*
X168591634Y-64220520D01*
X168703438Y-64108716D01*
X168703439Y-64108713D01*
X169035335Y-63776816D01*
X169096657Y-63743334D01*
X169123015Y-63740500D01*
X169294219Y-63740500D01*
X169361258Y-63760185D01*
X169390072Y-63785835D01*
X169416668Y-63818242D01*
X169443981Y-63882552D01*
X169432190Y-63951419D01*
X169430174Y-63955358D01*
X169397160Y-64017125D01*
X169339947Y-64205727D01*
X169320631Y-64401857D01*
X169339947Y-64597986D01*
X169397160Y-64786590D01*
X169490058Y-64960389D01*
X169490062Y-64960396D01*
X169615088Y-65112740D01*
X169767432Y-65237766D01*
X169767439Y-65237770D01*
X169941238Y-65330668D01*
X169941241Y-65330668D01*
X169941245Y-65330671D01*
X170129840Y-65387881D01*
X170325972Y-65407198D01*
X170522104Y-65387881D01*
X170710699Y-65330671D01*
X170884510Y-65237767D01*
X171036855Y-65112740D01*
X171161882Y-64960395D01*
X171254786Y-64786584D01*
X171311996Y-64597989D01*
X171331313Y-64401857D01*
X171323064Y-64318109D01*
X171336082Y-64249466D01*
X171358783Y-64218279D01*
X171378446Y-64198617D01*
X171378449Y-64198616D01*
X171490253Y-64086812D01*
X171540372Y-64000000D01*
X171569310Y-63949881D01*
X171610233Y-63797153D01*
X171610233Y-63639039D01*
X171610233Y-62097245D01*
X171610234Y-62097232D01*
X171610234Y-61929131D01*
X171610234Y-61929129D01*
X171569310Y-61776401D01*
X171540372Y-61726281D01*
X171490253Y-61639470D01*
X171378449Y-61527666D01*
X171378448Y-61527665D01*
X171374118Y-61523335D01*
X171374107Y-61523325D01*
X171294313Y-61443531D01*
X171260828Y-61382208D01*
X171262219Y-61323757D01*
X171263410Y-61319309D01*
X171296610Y-61195408D01*
X171317206Y-60960000D01*
X171296610Y-60724592D01*
X171235450Y-60496337D01*
X171135582Y-60282171D01*
X171119441Y-60259118D01*
X171000041Y-60088597D01*
X170832949Y-59921506D01*
X170832943Y-59921501D01*
X170647389Y-59791575D01*
X170603764Y-59736998D01*
X170596570Y-59667500D01*
X170628093Y-59605145D01*
X170647389Y-59588425D01*
X170669573Y-59572891D01*
X170832948Y-59458495D01*
X171000042Y-59291401D01*
X171135582Y-59097830D01*
X171235450Y-58883663D01*
X171296610Y-58655408D01*
X171317206Y-58420000D01*
X171296610Y-58184592D01*
X171235450Y-57956337D01*
X171135582Y-57742171D01*
X171119441Y-57719118D01*
X171000041Y-57548597D01*
X170832949Y-57381506D01*
X170832943Y-57381501D01*
X170647389Y-57251575D01*
X170603764Y-57196998D01*
X170596570Y-57127500D01*
X170628093Y-57065145D01*
X170647389Y-57048425D01*
X170669573Y-57032891D01*
X170832948Y-56918495D01*
X171000042Y-56751401D01*
X171135582Y-56557830D01*
X171235450Y-56343663D01*
X171296610Y-56115408D01*
X171317206Y-55880000D01*
X171296610Y-55644592D01*
X171235450Y-55416337D01*
X171135582Y-55202171D01*
X171129972Y-55194158D01*
X171000041Y-55008597D01*
X170832949Y-54841506D01*
X170832948Y-54841505D01*
X170646952Y-54711269D01*
X170603328Y-54656692D01*
X170596135Y-54587193D01*
X170627657Y-54524839D01*
X170646952Y-54508119D01*
X170832629Y-54378105D01*
X170999652Y-54211082D01*
X171135147Y-54017578D01*
X171234976Y-53803492D01*
X171234979Y-53803486D01*
X171292183Y-53590000D01*
X170394559Y-53590000D01*
X170427472Y-53532993D01*
X170461547Y-53405826D01*
X170461547Y-53274174D01*
X170427472Y-53147007D01*
X170394559Y-53090000D01*
X171292183Y-53090000D01*
X171292182Y-53089999D01*
X171234979Y-52876513D01*
X171234976Y-52876507D01*
X171135147Y-52662422D01*
X171135146Y-52662420D01*
X170999660Y-52468926D01*
X170999655Y-52468920D01*
X170832625Y-52301890D01*
X170646952Y-52171879D01*
X170603327Y-52117302D01*
X170596135Y-52047804D01*
X170627657Y-51985449D01*
X170646953Y-51968730D01*
X170756412Y-51892086D01*
X170832948Y-51838495D01*
X171000042Y-51671401D01*
X171135582Y-51477830D01*
X171235450Y-51263663D01*
X171296610Y-51035408D01*
X171317206Y-50800000D01*
X171296610Y-50564592D01*
X171235450Y-50336337D01*
X171135582Y-50122171D01*
X171000042Y-49928599D01*
X171000041Y-49928597D01*
X170832949Y-49761506D01*
X170832942Y-49761501D01*
X170639381Y-49625967D01*
X170639377Y-49625965D01*
X170481239Y-49552224D01*
X170425210Y-49526097D01*
X170425206Y-49526096D01*
X170425202Y-49526094D01*
X170196960Y-49464938D01*
X170196950Y-49464936D01*
X169961548Y-49444341D01*
X169961546Y-49444341D01*
X169726143Y-49464936D01*
X169726133Y-49464938D01*
X169497891Y-49526094D01*
X169497882Y-49526098D01*
X169283718Y-49625964D01*
X169283716Y-49625965D01*
X169090147Y-49761503D01*
X168967831Y-49883819D01*
X168906508Y-49917303D01*
X168836816Y-49912319D01*
X168780883Y-49870447D01*
X168763968Y-49839470D01*
X168714901Y-49707913D01*
X168714897Y-49707906D01*
X168628737Y-49592812D01*
X168628734Y-49592809D01*
X168513640Y-49506649D01*
X168513633Y-49506645D01*
X168378926Y-49456403D01*
X168378919Y-49456401D01*
X168319391Y-49450000D01*
X167671547Y-49450000D01*
X167671547Y-50366988D01*
X167614540Y-50334075D01*
X167487373Y-50300000D01*
X167355721Y-50300000D01*
X167228554Y-50334075D01*
X167171547Y-50366988D01*
X167171547Y-49450000D01*
X166523702Y-49450000D01*
X166464174Y-49456401D01*
X166464167Y-49456403D01*
X166329460Y-49506645D01*
X166329453Y-49506649D01*
X166215358Y-49592062D01*
X166149894Y-49616480D01*
X166081621Y-49601629D01*
X166032215Y-49552224D01*
X166017047Y-49492796D01*
X166017047Y-48884500D01*
X166036732Y-48817461D01*
X166089536Y-48771706D01*
X166141047Y-48760500D01*
X173147047Y-48760500D01*
X173214086Y-48780185D01*
G37*
%TD.AperFunction*%
%TA.AperFunction,Conductor*%
G36*
X169495622Y-53147007D02*
G01*
X169461547Y-53274174D01*
X169461547Y-53405826D01*
X169495622Y-53532993D01*
X169528535Y-53590000D01*
X167854559Y-53590000D01*
X167887472Y-53532993D01*
X167921547Y-53405826D01*
X167921547Y-53274174D01*
X167887472Y-53147007D01*
X167854559Y-53090000D01*
X169528535Y-53090000D01*
X169495622Y-53147007D01*
G37*
%TD.AperFunction*%
%TA.AperFunction,Conductor*%
G36*
X167671547Y-52906988D02*
G01*
X167614540Y-52874075D01*
X167487373Y-52840000D01*
X167355721Y-52840000D01*
X167228554Y-52874075D01*
X167171547Y-52906988D01*
X167171547Y-51233012D01*
X167228554Y-51265925D01*
X167355721Y-51300000D01*
X167487373Y-51300000D01*
X167614540Y-51265925D01*
X167671547Y-51233012D01*
X167671547Y-52906988D01*
G37*
%TD.AperFunction*%
%TD*%
M02*
